{
.appVersion = "3517";
.formatVersion = 3;
DisplayStrings = (
"This Beautiful Script Font 
Was 100% AI Generated 
  from Letters STUV!
  Isn't that Pretty Cool? 








"
);
date = "2026-02-04 08:08:18 +0000";
familyName = "Demographic Script";
fontMaster = (
{
guides = (
{
locked = 1;
pos = (134,170);
}
);
id = m01;
metricValues = (
{
over = 16;
pos = 810;
},
{
over = 16;
pos = 810;
},
{
over = 16;
pos = 320;
},
{
over = -16;
},
{
over = -16;
pos = -360;
},
{
pos = 27;
}
);
name = Regular;
},
{
customParameters = (
{
name = "Master Icon Glyph Name";
value = n;
}
);
guides = (
{
locked = 1;
pos = (134,170);
}
);
id = "00CACD6B-0B58-4977-961D-D953D4B3986F";
metricValues = (
{
over = 16;
pos = 810;
},
{
over = 16;
pos = 810;
},
{
over = 16;
pos = 320;
},
{
over = -16;
},
{
over = -16;
pos = -360;
},
{
pos = 27;
}
);
name = "AI Generated (2026-03-12 18:46)";
}
);
glyphs = (
{
glyphname = A;
lastChange = "2026-03-12 18:46:28 +0000";
layers = (
{
layerId = m01;
width = 600;
},
{
anchors = (
{
name = bottom;
pos = (300,0);
},
{
name = top;
pos = (300,810);
}
);
layerId = "00CACD6B-0B58-4977-961D-D953D4B3986F";
shapes = (
{
closed = 1;
nodes = (
(1069,744,cs),
(990,716,o),
(916,654,o),
(823,539,cs),
(770,472,o),
(661,316,o),
(661,306,cs),
(661,296,o),
(641,292,o),
(568,285,cs),
(469,277,o),
(364,227,o),
(364,189,cs),
(364,173,o),
(364,172,o),
(379,184,cs),
(430,231,o),
(642,276,o),
(608,233,cs),
(359,-78,o),
(139,-165,o),
(49,10,cs),
(-40,182,o),
(290,461,o),
(469,365,cs),
(491,353,o),
(504,353,o),
(504,364,cs),
(504,388,o),
(434,408,o),
(355,409,cs),
(102,410,o),
(-98,108,o),
(52,-48,cs),
(192,-194,o),
(447,-97,o),
(645,177,cs),
(687,235,o),
(692,239,o),
(714,235,cs),
(737,230,o),
(910,167,o),
(916,161,cs),
(917,160,o),
(900,109,o),
(877,48,cs),
(817,-115,o),
(817,-109,o),
(860,-106,cs),
(899,-103,o),
(899,-103,o),
(927,-21,cs),
(936,12,o),
(955,61,o),
(968,91,c),
(990,145,l),
(1036,150,l),
(1082,155,o),
(1126,179,o),
(1141,207,cs),
(1156,236,o),
(1149,239,o),
(1119,219,cs),
(1098,205,o),
(1077,199,o),
(1053,199,c),
(1017,199,l),
(1053,275,l),
(1110,398,o),
(1137,449,o),
(1200,552,c),
(1270,670,l),
(1310,738,o),
(1184,785,o)
);
},
{
closed = 1;
nodes = (
(1226,723,cs),
(1252,713,o),
(1246,693,o),
(1195,631,cs),
(1137,559,o),
(1066,445,o),
(996,309,cs),
(970,260,o),
(947,218,o),
(946,216,cs),
(943,213,o),
(739,271,o),
(725,279,cs),
(722,281,o),
(724,292,o),
(731,303,c),
(766,361,l),
(935,665,o),
(1080,779,o)
);
}
);
width = 1190;
}
);
unicode = 65;
},
{
glyphname = AE;
lastChange = "2026-03-12 18:47:04 +0000";
layers = (
{
layerId = "00CACD6B-0B58-4977-961D-D953D4B3986F";
shapes = (
{
closed = 1;
nodes = (
(1069,744,cs),
(990,716,o),
(916,654,o),
(823,539,cs),
(770,472,o),
(661,316,o),
(661,306,cs),
(661,296,o),
(641,292,o),
(568,285,cs),
(469,277,o),
(364,227,o),
(364,189,cs),
(364,173,o),
(364,172,o),
(379,184,cs),
(430,231,o),
(642,276,o),
(608,233,cs),
(359,-78,o),
(139,-165,o),
(49,10,cs),
(-40,182,o),
(290,461,o),
(469,365,cs),
(491,353,o),
(504,353,o),
(504,364,cs),
(504,388,o),
(434,408,o),
(355,409,cs),
(102,410,o),
(-98,108,o),
(52,-48,cs),
(192,-194,o),
(447,-97,o),
(645,177,cs),
(687,235,o),
(692,239,o),
(714,235,cs),
(737,230,o),
(910,167,o),
(916,161,cs),
(917,160,o),
(900,109,o),
(877,48,cs),
(817,-115,o),
(817,-109,o),
(860,-106,cs),
(899,-103,o),
(899,-103,o),
(927,-21,cs),
(936,12,o),
(955,61,o),
(968,91,c),
(990,145,l),
(1036,150,l),
(1082,155,o),
(1126,179,o),
(1141,207,cs),
(1156,236,o),
(1149,239,o),
(1119,219,cs),
(1098,205,o),
(1077,199,o),
(1053,199,c),
(1017,199,l),
(1053,275,l),
(1110,398,o),
(1137,449,o),
(1200,552,c),
(1270,670,l),
(1310,738,o),
(1184,785,o)
);
},
{
closed = 1;
nodes = (
(1226,723,cs),
(1252,713,o),
(1246,693,o),
(1195,631,cs),
(1137,559,o),
(1066,445,o),
(996,309,cs),
(970,260,o),
(947,218,o),
(946,216,cs),
(943,213,o),
(739,271,o),
(725,279,cs),
(722,281,o),
(724,292,o),
(731,303,c),
(766,361,l),
(935,665,o),
(1080,779,o)
);
},
{
closed = 1;
nodes = (
(1624,764,cs),
(1426,729,o),
(1294,593,o),
(1330,460,cs),
(1338,433,o),
(1343,410,o),
(1342,409,cs),
(1340,408,o),
(1319,401,o),
(1294,394,cs),
(990,307,o),
(935,-72,o),
(1220,-119,cs),
(1348,-140,o),
(1541,-2,o),
(1542,114,cs),
(1542,141,o),
(1519,137,o),
(1512,110,cs),
(1457,-121,o),
(1073,-149,o),
(1108,80,cs),
(1131,234,o),
(1300,406,o),
(1390,368,cs),
(1452,342,o),
(1533,355,o),
(1570,396,cs),
(1590,418,o),
(1570,428,o),
(1533,413,cs),
(1468,386,o),
(1385,423,o),
(1385,479,cs),
(1385,651,o),
(1711,830,o),
(1790,700,cs),
(1838,622,o),
(1730,537,o),
(1584,537,cs),
(1531,537,o),
(1517,526,o),
(1557,515,cs),
(1705,473,o),
(1872,597,o),
(1818,708,cs),
(1789,766,o),
(1733,782,o)
);
}
);
width = 1575;
},
{
layerId = m01;
width = 600;
}
);
unicode = 198;
},
{
glyphname = B;
lastChange = "2026-03-12 18:46:28 +0000";
layers = (
{
layerId = m01;
width = 600;
},
{
anchors = (
{
name = bottom;
pos = (492,0);
},
{
name = top;
pos = (492,810);
}
);
layerId = "00CACD6B-0B58-4977-961D-D953D4B3986F";
shapes = (
{
closed = 1;
nodes = (
(674,763,cs),
(407,740,o),
(117,503,o),
(116,307,cs),
(116,285,o),
(107,270,o),
(75,235,cs),
(-127,13,o),
(150,-239,o),
(381,-43,c),
(433,0,l),
(463,24,o),
(527,132,o),
(575,240,cs),
(631,363,o),
(629,362,o),
(698,348,cs),
(938,299,o),
(836,-56,o),
(574,-83,cs),
(521,-88,o),
(512,-87,o),
(465,-64,cs),
(402,-35,o),
(390,-39,o),
(438,-73,cs),
(521,-133,o),
(676,-128,o),
(774,-62,cs),
(951,60,o),
(952,291,o),
(776,353,cs),
(724,372,o),
(724,373,o),
(798,396,cs),
(1146,504,o),
(1046,796,o)
);
},
{
closed = 1;
nodes = (
(884,723,cs),
(987,670,o),
(964,534,o),
(839,451,cs),
(772,406,o),
(645,370,o),
(645,395,cs),
(645,422,o),
(750,608,o),
(786,645,cs),
(808,668,o),
(825,690,o),
(822,694,cs),
(808,719,o),
(701,617,o),
(649,527,c),
(611,463,l),
(587,424,o),
(488,222,o),
(488,212,cs),
(488,205,o),
(483,194,o),
(476,189,cs),
(469,182,o),
(455,158,o),
(444,136,cs),
(319,-110,o),
(62,-170,o),
(40,41,cs),
(34,108,o),
(105,248,o),
(126,212,cs),
(159,160,o),
(173,143,o),
(196,127,cs),
(229,105,o),
(320,85,o),
(332,98,cs),
(348,113,o),
(330,127,o),
(298,122,cs),
(231,113,o),
(126,209,o),
(154,254,cs),
(169,277,o),
(274,330,o),
(317,336,cs),
(358,342,o),
(371,351,o),
(356,366,cs),
(344,379,o),
(264,360,o),
(205,330,cs),
(179,317,o),
(155,306,o),
(152,306,cs),
(132,306,o),
(198,432,o),
(235,462,cs),
(242,468,o),
(248,478,o),
(248,484,cs),
(248,501,o),
(407,618,o),
(484,656,cs),
(626,728,o),
(814,760,o)
);
}
);
width = 984;
}
);
unicode = 66;
},
{
glyphname = C;
lastChange = "2026-03-12 18:46:28 +0000";
layers = (
{
layerId = m01;
width = 600;
},
{
anchors = (
{
name = bottom;
pos = (244,0);
},
{
name = top;
pos = (272,810);
}
);
layerId = "00CACD6B-0B58-4977-961D-D953D4B3986F";
shapes = (
{
closed = 1;
nodes = (
(508,754,cs),
(51,618,o),
(-159,-147,o),
(273,-106,cs),
(367,-97,o),
(519,89,o),
(461,125,cs),
(446,134,o),
(441,127,o),
(434,94,cs),
(392,-137,o),
(114,-92,o),
(121,145,cs),
(129,454,o),
(475,818,o),
(679,733,cs),
(811,678,o),
(687,521,o),
(512,521,cs),
(456,521,o),
(455,500,o),
(511,492,cs),
(674,470,o),
(825,633,o),
(732,733,cs),
(698,771,o),
(598,780,o)
);
}
);
width = 488;
}
);
unicode = 67;
},
{
glyphname = D;
lastChange = "2026-03-12 18:46:28 +0000";
layers = (
{
layerId = m01;
width = 600;
},
{
anchors = (
{
name = bottom;
pos = (467,0);
},
{
name = top;
pos = (467,810);
}
);
layerId = "00CACD6B-0B58-4977-961D-D953D4B3986F";
shapes = (
{
closed = 1;
nodes = (
(782,770,c),
(741,739,l),
(708,751,l),
(454,845,o),
(76,604,o),
(44,328,cs),
(40,294,o),
(32,282,o),
(-9,240,cs),
(-157,89,o),
(-65,-134,o),
(131,-98,cs),
(306,-66,o),
(384,25,o),
(562,399,cs),
(621,524,o),
(690,640,o),
(731,680,c),
(752,703,l),
(784,674,l),
(988,490,o),
(754,3,o),
(434,-54,c),
(380,-69,l),
(355,-77,o),
(307,-85,o),
(275,-88,cs),
(242,-91,o),
(215,-96,o),
(215,-99,cs),
(215,-111,o),
(248,-114,o),
(313,-106,cs),
(815,-50,o),
(1111,390,o),
(834,670,cs),
(813,691,o),
(791,710,o),
(784,713,cs),
(770,718,o),
(788,761,o),
(804,761,cs),
(818,761,o),
(845,789,o),
(837,796,cs),
(829,805,o),
(825,803,o)
);
},
{
closed = 1;
nodes = (
(693,727,c),
(720,718,l),
(664,658,l),
(595,586,o),
(566,542,o),
(484,389,cs),
(302,50,o),
(242,-28,o),
(140,-62,cs),
(-23,-116,o),
(-118,66,o),
(1,202,cs),
(40,246,o),
(46,248,o),
(52,218,cs),
(64,158,o),
(136,99,o),
(200,96,cs),
(236,95,o),
(238,119,o),
(202,122,cs),
(132,129,o),
(74,184,o),
(74,246,cs),
(74,265,o),
(135,296,o),
(201,309,cs),
(227,315,o),
(248,322,o),
(248,327,cs),
(247,340,o),
(168,332,o),
(123,315,c),
(83,299,l),
(83,322,l),
(83,342,o),
(125,436,o),
(150,475,cs),
(265,643,o),
(551,776,o)
);
}
);
width = 934;
}
);
unicode = 68;
},
{
glyphname = E;
lastChange = "2026-03-12 18:46:28 +0000";
layers = (
{
layerId = m01;
width = 600;
},
{
anchors = (
{
name = bottom;
pos = (272,0);
},
{
name = top;
pos = (272,810);
}
);
layerId = "00CACD6B-0B58-4977-961D-D953D4B3986F";
shapes = (
{
closed = 1;
nodes = (
(603,764,cs),
(405,729,o),
(273,593,o),
(309,460,cs),
(317,433,o),
(322,410,o),
(321,409,cs),
(319,408,o),
(298,401,o),
(273,394,cs),
(-31,307,o),
(-86,-72,o),
(199,-119,cs),
(327,-140,o),
(520,-2,o),
(521,114,cs),
(521,141,o),
(498,137,o),
(491,110,cs),
(436,-121,o),
(52,-149,o),
(87,80,cs),
(110,234,o),
(279,406,o),
(369,368,cs),
(431,342,o),
(512,355,o),
(549,396,cs),
(569,418,o),
(549,428,o),
(512,413,cs),
(447,386,o),
(364,423,o),
(364,479,cs),
(364,651,o),
(690,830,o),
(769,700,cs),
(817,622,o),
(709,537,o),
(563,537,cs),
(510,537,o),
(496,526,o),
(536,515,cs),
(684,473,o),
(851,597,o),
(797,708,cs),
(768,766,o),
(712,782,o)
);
}
);
width = 554;
}
);
unicode = 69;
},
{
glyphname = F;
lastChange = "2026-03-12 18:46:28 +0000";
layers = (
{
layerId = m01;
width = 600;
},
{
anchors = (
{
name = bottom;
pos = (314,0);
},
{
name = top;
pos = (314,810);
}
);
layerId = "00CACD6B-0B58-4977-961D-D953D4B3986F";
shapes = (
{
closed = 1;
nodes = (
(749,756,cs),
(727,736,o),
(726,736,o),
(678,748,cs),
(616,765,o),
(491,764,o),
(427,747,cs),
(371,733,o),
(264,682,o),
(264,670,cs),
(264,665,o),
(260,661,o),
(253,661,cs),
(184,661,o),
(49,434,o),
(45,311,c),
(43,254,l),
(3,234,l),
(-171,146,o),
(-180,-70,o),
(-12,-108,cs),
(154,-145,o),
(317,-27,o),
(449,224,c),
(485,293,l),
(530,289,l),
(644,280,o),
(690,284,o),
(693,303,cs),
(695,319,o),
(690,320,o),
(603,325,cs),
(551,328,o),
(508,332,o),
(507,334,cs),
(495,345,o),
(641,596,o),
(698,665,c),
(717,689,l),
(762,675,l),
(889,635,o),
(1010,627,o),
(1055,654,cs),
(1070,663,o),
(1083,669,o),
(1083,666,cs),
(1083,663,o),
(1092,670,o),
(1103,684,cs),
(1130,715,o),
(1123,720,o),
(1077,705,cs),
(1032,691,o),
(960,694,o),
(855,715,cs),
(762,734,o),
(765,732,o),
(791,756,c),
(814,776,l),
(793,777,l),
(781,777,o),
(761,768,o)
);
},
{
closed = 1;
nodes = (
(665,701,cs),
(672,694,o),
(636,645,o),
(593,600,cs),
(560,566,o),
(485,451,o),
(450,378,c),
(428,334,l),
(357,324,l),
(313,318,o),
(270,307,o),
(245,294,cs),
(187,263,o),
(74,262,o),
(74,293,cs),
(74,355,o),
(115,468,o),
(151,508,cs),
(160,518,o),
(174,537,o),
(183,552,cs),
(193,566,o),
(203,579,o),
(207,579,cs),
(210,579,o),
(226,590,o),
(241,604,cs),
(274,636,o),
(388,691,o),
(442,702,cs),
(487,711,o),
(656,710,o)
);
},
{
closed = 1;
nodes = (
(397,289,cs),
(397,271,o),
(310,116,o),
(277,75,cs),
(155,-79,o),
(-22,-131,o),
(-89,-33,cs),
(-163,76,o),
(-2,256,o),
(161,246,cs),
(191,245,o),
(213,250,o),
(241,263,cs),
(298,291,o),
(397,308,o)
);
}
);
width = 628;
}
);
unicode = 70;
},
{
glyphname = G;
lastChange = "2026-03-12 18:46:28 +0000";
layers = (
{
layerId = m01;
width = 600;
},
{
anchors = (
{
name = bottom;
pos = (297,0);
},
{
name = top;
pos = (297,810);
}
);
layerId = "00CACD6B-0B58-4977-961D-D953D4B3986F";
shapes = (
{
closed = 1;
nodes = (
(549,757,cs),
(521,751,o),
(480,737,o),
(458,727,cs),
(436,717,o),
(412,707,o),
(406,706,cs),
(400,705,o),
(387,696,o),
(377,687,cs),
(366,677,o),
(355,672,o),
(353,675,cs),
(350,678,o),
(347,677,o),
(347,672,cs),
(347,667,o),
(326,651,o),
(302,637,cs),
(171,563,o),
(50,317,o),
(70,161,cs),
(88,13,o),
(278,-49,o),
(390,56,cs),
(427,91,o),
(426,72,o),
(384,-12,cs),
(315,-150,o),
(223,-230,o),
(115,-245,cs),
(-33,-264,o),
(-84,-128,o),
(47,-65,cs),
(105,-38,o),
(108,-19,o),
(54,-30,cs),
(-91,-56,o),
(-83,-245,o),
(64,-272,cs),
(258,-309,o),
(398,-187,o),
(522,126,cs),
(530,147,o),
(553,198,o),
(574,238,cs),
(636,362,o),
(609,364,o),
(522,241,cs),
(371,30,o),
(230,-26,o),
(164,100,cs),
(51,323,o),
(398,773,o),
(659,740,cs),
(836,718,o),
(742,533,o),
(548,523,cs),
(481,518,o),
(465,501,o),
(517,491,cs),
(637,469,o),
(766,551,o),
(775,656,cs),
(783,748,o),
(691,789,o)
);
}
);
width = 595;
}
);
unicode = 71;
},
{
glyphname = H;
lastChange = "2026-03-12 18:46:28 +0000";
layers = (
{
layerId = m01;
width = 600;
},
{
anchors = (
{
name = bottom;
pos = (471,0);
},
{
name = top;
pos = (471,810);
}
);
layerId = "00CACD6B-0B58-4977-961D-D953D4B3986F";
shapes = (
{
closed = 1;
nodes = (
(554,756,cs),
(263,712,o),
(132,612,o),
(132,434,cs),
(132,330,o),
(167,310,o),
(174,410,cs),
(185,557,o),
(298,656,o),
(512,707,cs),
(589,725,o),
(786,732,o),
(767,718,cs),
(663,632,o),
(504,395,o),
(504,324,cs),
(504,296,o),
(481,289,o),
(383,287,cs),
(304,285,o),
(278,282,o),
(247,268,cs),
(198,245,o),
(145,199,o),
(156,188,cs),
(161,183,o),
(173,188,o),
(188,204,cs),
(203,218,o),
(218,229,o),
(225,230,cs),
(231,230,o),
(256,238,o),
(281,247,cs),
(328,265,o),
(432,270,o),
(453,257,cs),
(479,241,o),
(379,72,o),
(303,2,cs),
(226,-68,o),
(118,-95,o),
(47,-61,cs),
(-75,-2,o),
(-26,244,o),
(115,270,c),
(168,280,l),
(216,288,o),
(204,302,o),
(152,300,cs),
(-93,291,o),
(-133,-77,o),
(107,-111,cs),
(257,-131,o),
(398,-40,o),
(492,141,c),
(539,232,l),
(566,208,l),
(602,177,o),
(658,143,o),
(688,137,cs),
(716,129,o),
(717,141,o),
(679,17,cs),
(642,-100,o),
(643,-107,o),
(685,-107,cs),
(717,-107,o),
(717,-107,o),
(727,-62,cs),
(750,42,o),
(783,119,o),
(811,134,cs),
(845,152,o),
(898,209,o),
(886,213,cs),
(880,215,o),
(862,205,o),
(846,191,cs),
(828,177,o),
(812,170,o),
(812,174,cs),
(804,195,o),
(955,530,o),
(996,584,cs),
(1008,599,o),
(1017,613,o),
(1017,615,cs),
(1017,637,o),
(1140,727,o),
(1168,727,cs),
(1174,727,o),
(1184,733,o),
(1190,740,cs),
(1205,758,o),
(1132,757,o),
(1097,738,cs),
(1056,718,o),
(996,664,o),
(970,625,cs),
(946,590,o),
(936,577,o),
(922,560,cs),
(893,527,o),
(771,294,o),
(765,261,cs),
(758,222,o),
(717,165,o),
(700,170,cs),
(655,183,o),
(612,201,o),
(612,208,cs),
(612,212,o),
(607,215,o),
(601,215,cs),
(568,215,o),
(549,261,o),
(566,299,c),
(621,426,l),
(697,602,o),
(790,727,o),
(845,727,cs),
(880,727,o),
(895,736,o),
(884,749,cs),
(874,760,o),
(617,765,o)
);
}
);
width = 942;
}
);
unicode = 72;
},
{
glyphname = I;
lastChange = "2026-03-12 18:46:28 +0000";
layers = (
{
layerId = m01;
width = 600;
},
{
anchors = (
{
name = bottom;
pos = (306,0);
},
{
name = top;
pos = (306,810);
}
);
layerId = "00CACD6B-0B58-4977-961D-D953D4B3986F";
shapes = (
{
closed = 1;
nodes = (
(579,746,cs),
(363,710,o),
(269,627,o),
(269,471,cs),
(269,370,o),
(290,355,o),
(298,451,cs),
(309,586,o),
(419,678,o),
(617,716,cs),
(725,737,o),
(746,731,o),
(706,694,cs),
(661,651,o),
(584,524,o),
(526,397,cs),
(410,143,o),
(372,74,o),
(308,8,cs),
(183,-124,o),
(25,-110,o),
(25,32,cs),
(25,145,o),
(138,259,o),
(273,283,cs),
(325,292,o),
(345,314,o),
(300,314,cs),
(21,313,o),
(-136,-92,o),
(136,-106,cs),
(345,-116,o),
(440,-2,o),
(631,492,cs),
(688,640,o),
(754,727,o),
(807,727,cs),
(830,727,o),
(840,741,o),
(822,747,cs),
(808,753,o),
(612,752,o)
);
}
);
width = 612;
}
);
unicode = 73;
},
{
glyphname = J;
lastChange = "2026-03-12 18:46:28 +0000";
layers = (
{
layerId = m01;
width = 600;
},
{
anchors = (
{
name = bottom;
pos = (384,0);
},
{
name = top;
pos = (384,810);
}
);
layerId = "00CACD6B-0B58-4977-961D-D953D4B3986F";
shapes = (
{
closed = 1;
nodes = (
(757,768,cs),
(513,742,o),
(410,658,o),
(409,488,cs),
(409,407,o),
(423,389,o),
(431,461,cs),
(446,620,o),
(625,744,o),
(836,744,c),
(886,744,l),
(853,705,l),
(783,620,o),
(714,499,o),
(611,277,cs),
(424,-125,o),
(153,-292,o),
(43,-74,cs),
(-67,145,o),
(249,408,o),
(448,263,cs),
(478,241,o),
(474,268,o),
(444,294,cs),
(285,432,o),
(15,283,o),
(2,50,cs),
(-8,-128,o),
(110,-221,o),
(292,-178,cs),
(492,-131,o),
(612,28,o),
(765,455,cs),
(833,643,o),
(912,752,o),
(979,752,cs),
(993,752,o),
(1000,756,o),
(998,763,cs),
(993,775,o),
(854,779,o)
);
}
);
width = 769;
}
);
unicode = 74;
},
{
glyphname = K;
lastChange = "2026-03-12 18:46:28 +0000";
layers = (
{
layerId = m01;
width = 600;
},
{
anchors = (
{
name = bottom;
pos = (463,0);
},
{
name = top;
pos = (463,810);
}
);
layerId = "00CACD6B-0B58-4977-961D-D953D4B3986F";
shapes = (
{
closed = 1;
nodes = (
(579,761,cs),
(340,715,o),
(231,608,o),
(254,442,cs),
(260,391,o),
(275,399,o),
(283,457,cs),
(299,589,o),
(398,671,o),
(607,727,cs),
(727,760,o),
(772,750,o),
(722,702,cs),
(657,640,o),
(609,562,o),
(507,356,cs),
(331,-2,o),
(247,-92,o),
(113,-70,cs),
(-88,-36,o),
(13,271,o),
(231,283,cs),
(287,286,o),
(296,303,o),
(245,310,cs),
(14,345,o),
(-137,-32,o),
(81,-97,cs),
(260,-151,o),
(422,-25,o),
(541,260,cs),
(584,364,o),
(600,386,o),
(607,355,cs),
(642,170,o),
(661,108,o),
(716,-4,cs),
(793,-163,o),
(918,-240,o),
(1017,-190,cs),
(1076,-160,o),
(1086,-105,o),
(1028,-129,cs),
(961,-157,o),
(872,-116,o),
(814,-29,cs),
(774,31,o),
(636,332,o),
(636,360,cs),
(636,364,o),
(682,380,o),
(723,389,cs),
(828,414,o),
(950,488,o),
(1108,625,cs),
(1161,670,o),
(1224,717,o),
(1247,727,cs),
(1313,759,o),
(1296,779,o),
(1219,761,cs),
(1165,749,o),
(1126,722,o),
(1017,620,cs),
(891,503,o),
(814,456,o),
(670,408,cs),
(596,384,o),
(595,384,o),
(619,453,cs),
(675,617,o),
(770,744,o),
(835,744,cs),
(855,744,o),
(860,747,o),
(858,759,cs),
(854,780,o),
(686,781,o)
);
}
);
width = 926;
}
);
unicode = 75;
},
{
glyphname = L;
lastChange = "2026-03-12 18:46:28 +0000";
layers = (
{
layerId = m01;
width = 600;
},
{
anchors = (
{
name = bottom;
pos = (285,0);
},
{
name = top;
pos = (285,810);
}
);
layerId = "00CACD6B-0B58-4977-961D-D953D4B3986F";
shapes = (
{
closed = 1;
nodes = (
(692,749,cs),
(593,713,o),
(511,614,o),
(420,423,cs),
(231,24,o),
(239,37,o),
(164,37,cs),
(102,37,o),
(60,18,o),
(53,-13,cs),
(42,-55,o),
(106,-68,o),
(183,-38,cs),
(234,-18,o),
(241,-20,o),
(408,-92,cs),
(536,-146,o),
(550,-150,o),
(588,-146,cs),
(630,-141,o),
(665,-121,o),
(656,-106,cs),
(654,-102,o),
(655,-99,o),
(659,-100,cs),
(677,-103,o),
(685,-97,o),
(694,-74,cs),
(708,-43,o),
(703,-39,o),
(674,-54,cs),
(661,-60,o),
(644,-66,o),
(636,-66,cs),
(627,-66,o),
(620,-69,o),
(620,-73,cs),
(620,-92,o),
(309,-10,o),
(277,18,cs),
(273,22,o),
(281,37,o),
(298,56,cs),
(353,113,o),
(412,218,o),
(505,418,cs),
(621,666,o),
(717,766,o),
(809,727,cs),
(907,687,o),
(830,508,o),
(703,483,cs),
(674,477,o),
(673,461,o),
(701,456,cs),
(753,449,o),
(849,522,o),
(872,586,cs),
(916,712,o),
(823,795,o)
);
},
{
closed = 1;
nodes = (
(174,0,cs),
(174,-12,o),
(136,-25,o),
(102,-25,cs),
(73,-25,o),
(68,-18,o),
(84,-2,cs),
(97,11,o),
(174,12,o)
);
}
);
width = 570;
}
);
unicode = 76;
},
{
glyphname = M;
lastChange = "2026-03-12 18:46:28 +0000";
layers = (
{
layerId = m01;
width = 600;
},
{
anchors = (
{
name = bottom;
pos = (554,0);
},
{
name = top;
pos = (554,810);
}
);
layerId = "00CACD6B-0B58-4977-961D-D953D4B3986F";
shapes = (
{
closed = 1;
nodes = (
(827,752,cs),
(815,743,o),
(802,736,o),
(797,736,cs),
(750,735,o),
(578,503,o),
(467,294,cs),
(332,40,o),
(240,-59,o),
(125,-72,cs),
(78,-76,o),
(75,-76,o),
(80,-59,cs),
(84,-42,o),
(55,-41,o),
(45,-59,cs),
(42,-63,o),
(31,-66,o),
(20,-66,cs),
(-7,-66,o),
(-5,-76,o),
(24,-93,cs),
(46,-106,o),
(50,-106,o),
(61,-94,cs),
(72,-83,o),
(74,-83,o),
(74,-93,cs),
(74,-111,o),
(115,-116,o),
(174,-106,cs),
(314,-84,o),
(405,17,o),
(552,311,cs),
(662,532,o),
(783,724,o),
(800,708,cs),
(802,705,o),
(786,667,o),
(765,623,cs),
(708,504,o),
(698,465,o),
(625,112,cs),
(607,23,o),
(631,-16,o),
(665,44,cs),
(694,93,o),
(947,425,o),
(1000,484,cs),
(1086,579,o),
(1099,581,o),
(1047,493,cs),
(909,257,o),
(838,-21,o),
(891,-121,cs),
(922,-179,o),
(989,-218,o),
(1025,-198,cs),
(1047,-187,o),
(1042,-172,o),
(1016,-168,cs),
(815,-140,o),
(1143,727,o),
(1355,727,cs),
(1375,727,o),
(1386,743,o),
(1371,754,cs),
(1272,821,o),
(902,494,o),
(734,191,cs),
(709,147,o),
(705,163,o),
(720,238,c),
(755,418,l),
(781,550,o),
(821,675,o),
(852,722,cs),
(887,772,o),
(873,789,o)
);
},
{
closed = 1;
nodes = (
(245,392,cs),
(28,339,o),
(-147,37,o),
(-13,-51,cs),
(10,-67,o),
(15,-56,o),
(-2,-27,cs),
(-90,122,o),
(139,375,o),
(350,361,cs),
(448,355,o),
(427,384,o),
(322,400,cs),
(307,403,o),
(272,399,o)
);
}
);
width = 1108;
}
);
unicode = 77;
},
{
glyphname = N;
lastChange = "2026-03-12 18:46:28 +0000";
layers = (
{
layerId = m01;
width = 600;
},
{
anchors = (
{
name = bottom;
pos = (252,0);
},
{
name = top;
pos = (252,810);
}
);
layerId = "00CACD6B-0B58-4977-961D-D953D4B3986F";
shapes = (
{
closed = 1;
nodes = (
(789,749,cs),
(721,718,o),
(629,594,o),
(521,384,cs),
(381,114,o),
(349,61,o),
(284,-3,cs),
(154,-134,o),
(-5,-97,o),
(-2,65,cs),
(0,226,o),
(193,388,o),
(373,380,cs),
(443,376,o),
(451,384,o),
(401,406,cs),
(149,518,o),
(-188,75,o),
(32,-78,cs),
(217,-206,o),
(411,-56,o),
(576,346,cs),
(638,498,o),
(713,632,o),
(775,703,cs),
(807,738,o),
(815,732,o),
(798,685,cs),
(728,475,o),
(716,-99,o),
(783,-99,cs),
(798,-99,o),
(802,-95,o),
(802,-72,cs),
(802,149,o),
(1128,707,o),
(1257,707,cs),
(1291,707,o),
(1298,718,o),
(1276,737,cs),
(1151,840,o),
(923,544,o),
(822,145,c),
(794,37,l),
(794,145,l),
(793,303,o),
(808,512,o),
(828,620,c),
(849,738,l),
(854,765,o),
(833,768,o)
);
}
);
width = 1041;
}
);
unicode = 78;
},
{
glyphname = O;
lastChange = "2026-03-12 18:46:28 +0000";
layers = (
{
layerId = m01;
width = 600;
},
{
anchors = (
{
name = bottom;
pos = (226,0);
},
{
name = top;
pos = (226,810);
}
);
layerId = "00CACD6B-0B58-4977-961D-D953D4B3986F";
shapes = (
{
closed = 1;
nodes = (
(486,756,cs),
(74,653,o),
(-190,-68,o),
(170,-104,cs),
(367,-124,o),
(639,186,o),
(658,453,cs),
(662,505,o),
(668,529,o),
(679,542,cs),
(782,656,o),
(655,799,o)
);
},
{
closed = 1;
nodes = (
(632,709,cs),
(685,684,o),
(701,632,o),
(674,579,cs),
(658,548,o),
(655,548,o),
(642,581,cs),
(565,763,o),
(253,611,o),
(241,384,cs),
(238,321,o),
(256,280,o),
(298,259,cs),
(326,245,o),
(328,251,o),
(303,281,cs),
(209,393,o),
(346,628,o),
(506,632,cs),
(710,635,o),
(630,246,o),
(377,11,cs),
(171,-182,o),
(0,-55,o),
(94,219,cs),
(115,280,o),
(204,478,o),
(215,488,cs),
(217,490,o),
(241,518,o),
(265,551,cs),
(345,654,o),
(415,703,o),
(525,730,cs),
(550,737,o),
(593,728,o)
);
}
);
width = 661;
}
);
unicode = 79;
},
{
glyphname = OE;
lastChange = "2026-03-12 18:47:04 +0000";
layers = (
{
layerId = "00CACD6B-0B58-4977-961D-D953D4B3986F";
shapes = (
{
closed = 1;
nodes = (
(486,756,cs),
(74,653,o),
(-190,-68,o),
(170,-104,cs),
(367,-124,o),
(639,186,o),
(658,453,cs),
(662,505,o),
(668,529,o),
(679,542,cs),
(782,656,o),
(655,799,o)
);
},
{
closed = 1;
nodes = (
(632,709,cs),
(685,684,o),
(701,632,o),
(674,579,cs),
(658,548,o),
(655,548,o),
(642,581,cs),
(565,763,o),
(253,611,o),
(241,384,cs),
(238,321,o),
(256,280,o),
(298,259,cs),
(326,245,o),
(328,251,o),
(303,281,cs),
(209,393,o),
(346,628,o),
(506,632,cs),
(710,635,o),
(630,246,o),
(377,11,cs),
(171,-182,o),
(0,-55,o),
(94,219,cs),
(115,280,o),
(204,478,o),
(215,488,cs),
(217,490,o),
(241,518,o),
(265,551,cs),
(345,654,o),
(415,703,o),
(525,730,cs),
(550,737,o),
(593,728,o)
);
},
{
closed = 1;
nodes = (
(1095,764,cs),
(897,729,o),
(765,593,o),
(801,460,cs),
(809,433,o),
(814,410,o),
(813,409,cs),
(811,408,o),
(790,401,o),
(765,394,cs),
(461,307,o),
(406,-72,o),
(691,-119,cs),
(819,-140,o),
(1012,-2,o),
(1013,114,cs),
(1013,141,o),
(990,137,o),
(983,110,cs),
(928,-121,o),
(544,-149,o),
(579,80,cs),
(602,234,o),
(771,406,o),
(861,368,cs),
(923,342,o),
(1004,355,o),
(1041,396,cs),
(1061,418,o),
(1041,428,o),
(1004,413,cs),
(939,386,o),
(856,423,o),
(856,479,cs),
(856,651,o),
(1182,830,o),
(1261,700,cs),
(1309,622,o),
(1201,537,o),
(1055,537,cs),
(1002,537,o),
(988,526,o),
(1028,515,cs),
(1176,473,o),
(1343,597,o),
(1289,708,cs),
(1260,766,o),
(1204,782,o)
);
}
);
width = 1046;
},
{
layerId = m01;
width = 600;
}
);
unicode = 338;
},
{
glyphname = P;
lastChange = "2026-03-12 18:46:28 +0000";
layers = (
{
layerId = m01;
width = 600;
},
{
anchors = (
{
name = bottom;
pos = (438,0);
},
{
name = top;
pos = (438,810);
}
);
layerId = "00CACD6B-0B58-4977-961D-D953D4B3986F";
shapes = (
{
closed = 1;
nodes = (
(558,745,cs),
(288,672,o),
(92,484,o),
(91,295,cs),
(91,276,o),
(82,259,o),
(57,232,cs),
(-74,89,o),
(-23,-92,o),
(151,-105,cs),
(307,-116,o),
(425,-34,o),
(520,155,cs),
(543,201,o),
(548,207,o),
(576,211,cs),
(821,251,o),
(954,352,o),
(984,523,cs),
(1017,706,o),
(812,813,o)
);
},
{
closed = 1;
nodes = (
(855,708,cs),
(1036,608,o),
(816,249,o),
(569,240,cs),
(562,240,o),
(577,286,o),
(602,340,cs),
(612,361,o),
(627,397,o),
(636,420,cs),
(660,481,o),
(700,560,o),
(733,609,cs),
(770,664,o),
(765,685,o),
(727,644,cs),
(658,572,o),
(545,388,o),
(500,275,cs),
(493,256,o),
(482,240,o),
(477,237,cs),
(465,233,o),
(339,245,o),
(315,252,cs),
(303,256,o),
(298,254,o),
(298,245,cs),
(298,230,o),
(338,217,o),
(407,209,cs),
(465,203,o),
(465,203,o),
(413,115,cs),
(250,-159,o),
(-98,-132,o),
(42,144,cs),
(83,225,o),
(93,232,o),
(107,188,cs),
(124,135,o),
(191,91,o),
(253,91,cs),
(296,91,o),
(284,110,o),
(238,117,cs),
(174,127,o),
(118,184,o),
(126,233,cs),
(131,267,o),
(280,339,o),
(346,339,cs),
(356,339,o),
(364,344,o),
(364,351,cs),
(364,376,o),
(212,347,o),
(164,313,cs),
(123,284,o),
(120,309,o),
(156,384,cs),
(267,617,o),
(677,807,o)
);
}
);
width = 876;
}
);
unicode = 80;
},
{
glyphname = Q;
lastChange = "2026-03-12 18:46:28 +0000";
layers = (
{
layerId = m01;
width = 600;
},
{
anchors = (
{
name = bottom;
pos = (326,0);
},
{
name = top;
pos = (326,810);
}
);
layerId = "00CACD6B-0B58-4977-961D-D953D4B3986F";
shapes = (
{
closed = 1;
nodes = (
(471,755,c),
(430,738,l),
(4,561,o),
(-169,-131,o),
(219,-104,c),
(285,-100,l),
(328,-153,l),
(422,-267,o),
(524,-284,o),
(589,-197,cs),
(612,-166,o),
(603,-138,o),
(578,-164,cs),
(535,-211,o),
(478,-192,o),
(372,-99,c),
(335,-66,l),
(364,-44,l),
(536,93,o),
(653,298,o),
(653,465,cs),
(653,509,o),
(657,527,o),
(669,546,cs),
(760,672,o),
(623,815,o)
);
},
{
closed = 1;
nodes = (
(603,723,cs),
(657,707,o),
(681,674,o),
(674,625,cs),
(665,565,o),
(642,543,o),
(632,586,cs),
(617,656,o),
(507,684,o),
(417,642,cs),
(256,567,o),
(176,340,o),
(283,264,cs),
(317,239,o),
(320,249,o),
(289,291,cs),
(205,406,o),
(345,628,o),
(501,628,cs),
(701,628,o),
(636,260,o),
(394,23,cs),
(326,-44,o),
(314,-49,o),
(279,-22,cs),
(209,31,o),
(160,43,o),
(115,20,cs),
(83,4,o),
(83,4,o),
(77,56,cs),
(50,293,o),
(284,666,o),
(498,723,cs),
(554,738,o),
(551,738,o)
);
},
{
closed = 1;
nodes = (
(229,-40,c),
(259,-69,l),
(239,-76,l),
(187,-95,o),
(93,-56,o),
(101,-19,cs),
(107,18,o),
(182,5,o)
);
}
);
width = 653;
}
);
unicode = 81;
},
{
glyphname = R;
lastChange = "2026-03-12 18:46:28 +0000";
layers = (
{
layerId = m01;
width = 600;
},
{
anchors = (
{
name = bottom;
pos = (446,0);
},
{
name = top;
pos = (446,810);
}
);
layerId = "00CACD6B-0B58-4977-961D-D953D4B3986F";
shapes = (
{
closed = 1;
nodes = (
(602,752,cs),
(354,708,o),
(142,525,o),
(107,327,cs),
(98,277,o),
(92,265,o),
(69,245,cs),
(-43,151,o),
(-25,-59,o),
(98,-100,cs),
(264,-155,o),
(418,-51,o),
(554,208,cs),
(588,275,o),
(621,327,o),
(627,327,cs),
(640,327,o),
(640,327,o),
(649,244,cs),
(681,-61,o),
(930,-303,o),
(1061,-158,cs),
(1082,-135,o),
(1070,-121,o),
(1045,-137,cs),
(950,-200,o),
(791,-34,o),
(708,215,cs),
(669,331,o),
(669,325,o),
(736,342,cs),
(964,401,o),
(1091,600,o),
(962,699,cs),
(891,753,o),
(734,776,o)
);
},
{
closed = 1;
nodes = (
(784,731,cs),
(818,724,o),
(817,719,o),
(775,689,cs),
(716,648,o),
(651,551,o),
(538,337,cs),
(354,-13,o),
(294,-78,o),
(155,-78,cs),
(16,-78,o),
(-26,73,o),
(79,197,c),
(102,224,l),
(123,180,l),
(149,130,o),
(189,103,o),
(252,94,cs),
(305,87,o),
(300,108,o),
(247,118,cs),
(199,126,o),
(174,146,o),
(150,194,c),
(130,232,l),
(146,255,l),
(167,284,o),
(264,332,o),
(311,337,cs),
(353,342,o),
(363,364,o),
(323,364,cs),
(293,364,o),
(199,335,o),
(178,319,cs),
(143,293,o),
(140,310,o),
(169,374,cs),
(260,580,o),
(588,770,o)
);
},
{
closed = 1;
nodes = (
(899,698,cs),
(1002,626,o),
(913,446,o),
(742,380,cs),
(630,337,o),
(625,341,o),
(665,435,cs),
(760,660,o),
(834,743,o)
);
}
);
width = 893;
}
);
unicode = 82;
},
{
glyphname = S;
lastChange = "2026-03-12 18:46:28 +0000";
layers = (
{
anchors = (
{
name = bottom;
pos = (325,-150);
},
{
name = top;
pos = (700,810);
}
);
layerId = m01;
shapes = (
{
closed = 1;
nodes = (
(574,-150,o),
(867,23,o),
(867,186,cs),
(867,299,o),
(728,336,o),
(728,445,cs),
(728,574,o),
(920,750,o),
(1070,750,cs),
(1141,750,o),
(1170,710,o),
(1170,672,cs),
(1170,605,o),
(1079,546,o),
(993,546,cs),
(973,546,o),
(944,549,o),
(923,560,c),
(916,544,l),
(942,522,o),
(978,508,o),
(1017,508,cs),
(1114,508,o),
(1200,597,o),
(1200,682,cs),
(1200,744,o),
(1153,780,o),
(1072,780,cs),
(897,780,o),
(664,610,o),
(664,467,cs),
(664,357,o),
(802,315,o),
(802,213,cs),
(802,72,o),
(534,-95,o),
(296,-95,cs),
(148,-95,o),
(34,-30,o),
(34,99,cs),
(34,260,o),
(212,330,o),
(353,330,cs),
(406,330,o),
(452,320,o),
(499,300,c),
(507,316,l),
(470,344,o),
(408,379,o),
(320,379,cs),
(158,379,o),
(0,260,o),
(0,101,cs),
(0,-42,o),
(128,-150,o),
(325,-150,cs)
);
}
);
width = 960;
},
{
anchors = (
{
name = bottom;
pos = (239,0);
},
{
name = top;
pos = (239,810);
}
);
layerId = "00CACD6B-0B58-4977-961D-D953D4B3986F";
shapes = (
{
closed = 1;
nodes = (
(984,771,cs),
(793,748,o),
(589,580,o),
(607,458,cs),
(612,418,o),
(625,395,o),
(687,325,cs),
(869,118,o),
(270,-206,o),
(76,-6,cs),
(-88,163,o),
(144,390,o),
(416,327,cs),
(461,318,o),
(454,332,o),
(399,360,cs),
(220,447,o),
(4,321,o),
(4,128,cs),
(4,-123,o),
(297,-191,o),
(614,-13,cs),
(801,91,o),
(841,209,o),
(731,327,cs),
(655,406,o),
(648,455,o),
(697,548,cs),
(788,722,o),
(1084,818,o),
(1084,675,cs),
(1084,599,o),
(959,524,o),
(883,553,cs),
(853,565,o),
(845,551,o),
(870,533,cs),
(910,508,o),
(966,508,o),
(1017,535,cs),
(1161,611,o),
(1136,789,o)
);
}
);
width = 893;
}
);
unicode = 83;
},
{
glyphname = T;
lastChange = "2026-03-12 18:46:28 +0000";
layers = (
{
anchors = (
{
name = bottom;
pos = (245,-140);
},
{
name = top;
pos = (941,810);
}
);
layerId = m01;
shapes = (
{
closed = 1;
nodes = (
(358,92,l),
(213,92,o),
(150,179,o),
(150,288,cs),
(150,517,o),
(427,740,o),
(733,740,cs),
(920,740,o),
(1084,656,o),
(1220,656,cs),
(1319,656,o),
(1384,700,o),
(1419,758,c),
(1408,770,l),
(1362,738,o),
(1309,720,o),
(1244,720,cs),
(1108,720,o),
(949,800,o),
(746,800,cs),
(401,800,o),
(112,569,o),
(112,303,cs),
(112,152,o),
(205,62,o),
(358,62,c)
);
},
{
closed = 1;
nodes = (
(707,-140,o),
(723,623,o),
(1031,800,c),
(997,810,l),
(669,648,o),
(586,-106,o),
(223,-106,cs),
(132,-106,o),
(60,-58,o),
(60,35,cs),
(60,211,o),
(318,366,o),
(460,366,c),
(460,394,l),
(268,394,o),
(20,257,o),
(20,50,cs),
(20,-76,o),
(111,-140,o),
(245,-140,cs)
);
}
);
width = 889;
},
{
anchors = (
{
name = bottom;
pos = (376,0);
},
{
name = top;
pos = (376,810);
}
);
layerId = "00CACD6B-0B58-4977-961D-D953D4B3986F";
shapes = (
{
closed = 1;
nodes = (
(861,769,cs),
(844,752,o),
(841,752,o),
(776,765,cs),
(631,792,o),
(426,758,o),
(344,694,cs),
(332,685,o),
(322,679,o),
(322,682,cs),
(322,694,o),
(242,628,o),
(193,576,cs),
(116,494,o),
(74,401,o),
(74,308,cs),
(74,269,o),
(70,259,o),
(45,228,cs),
(-98,54,o),
(45,-150,o),
(265,-86,cs),
(422,-40,o),
(522,84,o),
(661,409,cs),
(681,455,o),
(700,495,o),
(704,500,cs),
(708,504,o),
(711,514,o),
(711,523,cs),
(711,531,o),
(713,537,o),
(717,537,cs),
(721,537,o),
(728,548,o),
(734,561,cs),
(766,635,o),
(827,697,o),
(862,692,cs),
(881,689,o),
(903,691,o),
(912,695,cs),
(928,703,o),
(928,703,o),
(916,692,cs),
(903,681,o),
(904,680,o),
(934,670,cs),
(965,659,o),
(1030,677,o),
(1045,701,cs),
(1051,712,o),
(989,731,o),
(965,725,cs),
(955,723,o),
(940,725,o),
(931,732,cs),
(922,739,o),
(908,744,o),
(899,744,cs),
(884,744,o),
(879,756,o),
(893,765,cs),
(898,767,o),
(901,773,o),
(901,778,cs),
(901,791,o),
(880,786,o)
);
},
{
closed = 1;
nodes = (
(782,708,cs),
(785,706,o),
(774,688,o),
(757,669,cs),
(708,615,o),
(646,514,o),
(546,327,cs),
(431,113,o),
(434,117,o),
(361,37,cs),
(271,-64,o),
(154,-96,o),
(75,-43,cs),
(33,-14,o),
(30,-7,o),
(30,66,cs),
(30,136,o),
(83,241,o),
(98,200,cs),
(112,154,o),
(202,96,o),
(250,101,cs),
(284,104,o),
(291,124,o),
(257,124,cs),
(197,124,o),
(129,173,o),
(119,222,cs),
(110,265,o),
(234,342,o),
(337,360,cs),
(373,365,o),
(383,377,o),
(360,386,cs),
(344,392,o),
(250,373,o),
(243,363,cs),
(241,359,o),
(232,356,o),
(224,356,cs),
(209,356,o),
(139,321,o),
(117,303,cs),
(105,294,o),
(105,310,o),
(118,381,cs),
(140,500,o),
(365,681,o),
(525,708,cs),
(539,711,o),
(551,714,o),
(554,717,cs),
(560,723,o),
(775,716,o)
);
}
);
width = 752;
}
);
unicode = 84;
},
{
glyphname = U;
lastChange = "2026-03-12 18:46:28 +0000";
layers = (
{
anchors = (
{
name = bottom;
pos = (874,-170);
},
{
name = top;
pos = (967,810);
}
);
layerId = m01;
shapes = (
{
closed = 1;
nodes = (
(530,-161,o),
(651,0,o),
(745,170,c),
(720,170,l),
(629,15,o),
(504,-128,o),
(409,-128,cs),
(367,-128,o),
(348,-100,o),
(348,-56,cs),
(348,132,o),
(697,453,o),
(697,628,cs),
(697,705,o),
(629,770,o),
(496,770,cs),
(279,770,o),
(0,604,o),
(0,398,cs),
(0,313,o),
(48,246,o),
(141,246,cs),
(285,246,o),
(485,409,o),
(515,618,c),
(491,618,l),
(467,476,o),
(263,280,o),
(135,280,cs),
(82,280,o),
(40,313,o),
(40,374,cs),
(40,538,o),
(337,738,o),
(513,738,cs),
(600,738,o),
(626,685,o),
(626,640,cs),
(626,477,o),
(280,155,o),
(280,-40,cs),
(280,-116,o),
(333,-161,o),
(401,-161,cs)
);
},
{
closed = 1;
nodes = (
(947,-170,o),
(988,-137,o),
(1011,-107,c),
(997,-94,l),
(974,-113,o),
(941,-130,o),
(906,-130,cs),
(835,-130,o),
(775,-62,o),
(775,49,cs),
(775,256,o),
(978,636,o),
(1097,788,c),
(1072,800,l),
(935,638,o),
(701,281,o),
(701,37,cs),
(701,-73,o),
(748,-170,o),
(874,-170,cs)
);
}
);
width = 897;
},
{
anchors = (
{
name = bottom;
pos = (256,0);
},
{
name = top;
pos = (256,810);
}
);
layerId = "00CACD6B-0B58-4977-961D-D953D4B3986F";
shapes = (
{
closed = 1;
nodes = (
(929,763,cs),
(832,654,o),
(717,467,o),
(648,308,cs),
(529,34,o),
(353,-130,o),
(269,-45,cs),
(221,2,o),
(260,111,o),
(390,289,cs),
(593,568,o),
(623,636,o),
(579,708,cs),
(555,749,o),
(453,785,o),
(436,759,cs),
(431,751,o),
(430,751,o),
(430,759,cs),
(430,775,o),
(319,770,o),
(264,753,cs),
(240,745,o),
(220,735,o),
(221,731,cs),
(222,726,o),
(212,724,o),
(199,726,cs),
(183,728,o),
(165,722,o),
(141,704,cs),
(121,689,o),
(101,678,o),
(95,678,cs),
(2,678,o),
(-92,398,o),
(-21,332,cs),
(89,227,o),
(422,434,o),
(422,607,cs),
(422,626,o),
(397,606,o),
(384,577,cs),
(311,413,o),
(69,265,o),
(3,342,cs),
(-48,402,o),
(-14,508,o),
(87,602,cs),
(132,644,o),
(141,656,o),
(132,665,cs),
(124,675,o),
(126,675,o),
(147,668,cs),
(167,661,o),
(178,661,o),
(203,674,cs),
(252,696,o),
(261,705,o),
(242,712,cs),
(231,717,o),
(233,718,o),
(252,718,cs),
(266,719,o),
(295,725,o),
(317,732,cs),
(371,748,o),
(425,747,o),
(441,731,cs),
(449,724,o),
(455,722,o),
(455,727,cs),
(455,741,o),
(498,728,o),
(515,709,cs),
(550,668,o),
(500,529,o),
(407,413,c),
(361,356,l),
(168,113,o),
(135,-73,o),
(282,-95,cs),
(373,-108,o),
(504,-14,o),
(572,114,cs),
(598,161,o),
(599,160,o),
(600,76,cs),
(601,-51,o),
(657,-123,o),
(761,-130,cs),
(820,-135,o),
(884,-110,o),
(884,-83,cs),
(884,-66,o),
(884,-66,o),
(864,-79,cs),
(813,-112,o),
(725,-73,o),
(690,-5,cs),
(628,118,o),
(732,436,o),
(919,696,cs),
(955,746,o),
(984,789,o),
(984,790,cs),
(984,804,o),
(951,788,o)
);
}
);
width = 818;
}
);
unicode = 85;
},
{
glyphname = V;
lastChange = "2026-03-12 18:46:28 +0000";
layers = (
{
anchors = (
{
name = bottom;
pos = (508,-180);
},
{
name = top;
pos = (515,810);
}
);
layerId = m01;
shapes = (
{
closed = 1;
nodes = (
(508,-180,l),
(827,202,o),
(1030,471,o),
(1030,656,cs),
(1030,728,o),
(999,779,o),
(949,807,c),
(934,799,l),
(951,756,o),
(958,715,o),
(958,671,cs),
(958,471,o),
(816,262,o),
(506,-137,c),
(517,-137,l),
(586,85,o),
(647,362,o),
(647,512,cs),
(647,720,o),
(530,770,o),
(419,770,cs),
(219,770,o),
(0,609,o),
(0,411,cs),
(0,318,o),
(48,251,o),
(141,251,cs),
(285,251,o),
(515,414,o),
(515,623,c),
(491,623,l),
(467,481,o),
(263,285,o),
(135,285,cs),
(82,285,o),
(40,318,o),
(40,385,cs),
(40,543,o),
(269,738,o),
(440,738,cs),
(531,738,o),
(571,683,o),
(571,534,cs),
(571,345,o),
(506,44,o),
(438,-180,c)
);
}
);
width = 930;
},
{
anchors = (
{
name = bottom;
pos = (438,0);
},
{
name = top;
pos = (438,810);
}
);
layerId = "00CACD6B-0B58-4977-961D-D953D4B3986F";
shapes = (
{
closed = 1;
nodes = (
(860,790,c),
(869,763,l),
(903,670,o),
(861,518,o),
(750,340,cs),
(691,245,o),
(455,-64,o),
(465,-33,cs),
(558,256,o),
(587,384,o),
(587,515,cs),
(587,631,o),
(576,663,o),
(517,720,cs),
(458,777,o),
(318,784,o),
(229,734,cs),
(219,728,o),
(208,725,o),
(206,725,cs),
(169,735,o),
(24,586,o),
(4,519,cs),
(-70,268,o),
(152,203,o),
(365,414,cs),
(399,448,o),
(431,485,o),
(433,497,cs),
(440,518,o),
(449,541,o),
(464,574,cs),
(474,595,o),
(467,628,o),
(455,615,cs),
(452,611,o),
(444,594,o),
(438,579,cs),
(369,397,o),
(77,242,o),
(34,365,cs),
(12,427,o),
(70,579,o),
(125,602,c),
(183,645,l),
(379,798,o),
(524,759,o),
(522,554,cs),
(522,444,o),
(471,160,o),
(438,79,cs),
(421,36,o),
(390,-78,o),
(393,-87,cs),
(403,-109,o),
(455,-106,o),
(467,-83,cs),
(474,-72,o),
(505,-32,o),
(537,4,cs),
(569,41,o),
(602,80,o),
(608,93,cs),
(615,106,o),
(623,116,o),
(627,116,cs),
(630,116,o),
(657,147,o),
(686,186,cs),
(716,225,o),
(748,267,o),
(759,280,cs),
(898,444,o),
(974,649,o),
(930,736,cs),
(916,764,o),
(860,807,o)
);
}
);
width = 876;
}
);
unicode = 86;
},
{
glyphname = W;
lastChange = "2026-03-12 18:46:28 +0000";
layers = (
{
layerId = m01;
width = 600;
},
{
anchors = (
{
name = bottom;
pos = (574,0);
},
{
name = top;
pos = (574,810);
}
);
layerId = "00CACD6B-0B58-4977-961D-D953D4B3986F";
shapes = (
{
closed = 1;
nodes = (
(970,792,cs),
(966,786,o),
(962,766,o),
(961,748,cs),
(952,645,o),
(917,570,o),
(806,412,c),
(661,206,l),
(622,150,o),
(570,78,o),
(545,46,cs),
(519,13,o),
(494,-21,o),
(489,-30,cs),
(477,-54,o),
(421,-71,o),
(398,-59,cs),
(351,-33,o),
(388,65,o),
(527,280,cs),
(684,522,o),
(713,618,o),
(657,704,cs),
(608,778,o),
(450,799,o),
(322,746,cs),
(107,657,o),
(0,544,o),
(0,403,cs),
(0,342,o),
(36,277,o),
(75,270,c),
(111,261,l),
(231,227,o),
(461,411,o),
(500,571,cs),
(510,612,o),
(489,604,o),
(469,561,cs),
(355,318,o),
(11,189,o),
(36,398,cs),
(61,609,o),
(526,851,o),
(608,694,cs),
(646,618,o),
(603,510,o),
(422,232,c),
(382,170,l),
(326,83,o),
(305,-35,o),
(338,-76,cs),
(393,-145,o),
(506,-90,o),
(591,49,cs),
(628,111,o),
(626,113,o),
(622,31,cs),
(616,-116,o),
(688,-140,o),
(798,-30,cs),
(1152,328,o),
(1340,670,o),
(1241,776,cs),
(1203,816,o),
(1198,810,o),
(1198,733,cs),
(1198,556,o),
(1025,246,o),
(782,-8,cs),
(605,-193,o),
(656,94,o),
(853,393,cs),
(996,608,o),
(1031,697,o),
(1000,767,cs),
(984,804,o),
(979,808,o)
);
}
);
width = 1149;
}
);
unicode = 87;
},
{
glyphname = X;
lastChange = "2026-03-12 18:46:28 +0000";
layers = (
{
layerId = m01;
width = 600;
},
{
anchors = (
{
name = bottom;
pos = (525,0);
},
{
name = top;
pos = (525,810);
}
);
layerId = "00CACD6B-0B58-4977-961D-D953D4B3986F";
shapes = (
{
closed = 1;
nodes = (
(558,761,cs),
(369,704,o),
(241,562,o),
(233,399,cs),
(230,334,o),
(228,331,o),
(210,331,cs),
(20,331,o),
(-73,46,o),
(83,-62,cs),
(183,-131,o),
(424,-111,o),
(504,-25,c),
(546,3,l),
(566,17,o),
(627,72,o),
(681,126,cs),
(735,180,o),
(779,223,o),
(780,222,cs),
(781,220,o),
(789,184,o),
(796,141,cs),
(808,67,o),
(815,37,o),
(818,37,c),
(823,18,l),
(837,-57,o),
(919,-132,o),
(987,-132,cs),
(1018,-132,o),
(1020,-118,o),
(990,-107,cs),
(944,-92,o),
(895,-28,o),
(888,25,c),
(869,149,l),
(843,313,o),
(843,311,o),
(897,370,cs),
(922,398,o),
(942,422,o),
(942,423,cs),
(942,437,o),
(1174,675,o),
(1215,703,c),
(1280,746,l),
(1321,774,o),
(1323,780,o),
(1288,773,cs),
(1183,750,o),
(1026,626,o),
(879,451,cs),
(839,403,o),
(845,394,o),
(822,542,cs),
(787,769,o),
(732,814,o)
);
},
{
closed = 1;
nodes = (
(716,739,cs),
(745,734,o),
(753,680,o),
(765,442,c),
(770,324,l),
(681,232,l),
(524,70,o),
(390,-24,o),
(273,-54,cs),
(2,-124,o),
(-74,208,o),
(191,303,c),
(237,320,l),
(270,289,l),
(328,235,o),
(417,230,o),
(507,275,cs),
(559,300,o),
(534,310,o),
(459,294,cs),
(135,221,o),
(257,608,o),
(598,732,cs),
(645,749,o),
(661,751,o)
);
}
);
width = 1050;
}
);
unicode = 88;
},
{
glyphname = Y;
lastChange = "2026-03-12 18:46:28 +0000";
layers = (
{
layerId = m01;
width = 600;
},
{
anchors = (
{
name = bottom;
pos = (413,0);
},
{
name = top;
pos = (413,810);
}
);
layerId = "00CACD6B-0B58-4977-961D-D953D4B3986F";
shapes = (
{
closed = 1;
nodes = (
(882,697,cs),
(801,614,o),
(700,490,o),
(660,422,cs),
(617,349,o),
(455,217,o),
(387,199,cs),
(244,160,o),
(260,232,o),
(440,446,cs),
(573,604,o),
(598,669,o),
(550,727,cs),
(503,782,o),
(342,796,o),
(294,749,cs),
(277,731,o),
(266,727,o),
(237,728,cs),
(110,735,o),
(-31,537,o),
(3,401,cs),
(12,370,o),
(25,376,o),
(25,412,cs),
(25,566,o),
(236,744,o),
(419,744,cs),
(560,744,o),
(537,653,o),
(343,425,cs),
(208,266,o),
(197,141,o),
(318,141,cs),
(379,141,o),
(491,205,o),
(549,274,cs),
(605,340,o),
(592,296,o),
(496,98,cs),
(446,-5,o),
(458,-1,o),
(336,37,cs),
(107,106,o),
(-19,64,o),
(-21,-84,cs),
(-21,-292,o),
(330,-292,o),
(484,-83,c),
(512,-44,l),
(555,-59,l),
(605,-75,o),
(657,-84,o),
(708,-86,cs),
(765,-87,o),
(753,-71,o),
(690,-60,cs),
(600,-44,o),
(529,-24,o),
(529,-13,cs),
(529,0,o),
(690,360,o),
(717,404,cs),
(750,461,o),
(866,615,o),
(933,690,cs),
(988,752,o),
(1000,775,o),
(979,783,cs),
(974,785,o),
(931,746,o)
);
},
{
closed = 1;
nodes = (
(253,25,cs),
(436,-21,o),
(441,-26,o),
(381,-92,cs),
(250,-236,o),
(8,-233,o),
(8,-88,cs),
(8,22,o),
(100,64,o)
);
}
);
width = 827;
}
);
unicode = 89;
},
{
glyphname = Z;
lastChange = "2026-03-12 18:46:28 +0000";
layers = (
{
layerId = m01;
width = 600;
},
{
anchors = (
{
name = bottom;
pos = (384,0);
},
{
name = top;
pos = (384,810);
}
);
layerId = "00CACD6B-0B58-4977-961D-D953D4B3986F";
shapes = (
{
closed = 1;
nodes = (
(487,770,cs),
(378,727,o),
(305,632,o),
(299,525,cs),
(295,447,o),
(317,418,o),
(325,491,cs),
(343,670,o),
(482,746,o),
(709,699,cs),
(764,687,o),
(832,678,o),
(861,678,c),
(913,678,l),
(855,636,l),
(823,613,o),
(705,532,o),
(591,456,cs),
(238,222,o),
(41,28,o),
(41,-87,cs),
(41,-115,o),
(79,-109,o),
(88,-80,cs),
(91,-70,o),
(105,-50,o),
(119,-35,c),
(145,-7,l),
(199,-27,l),
(228,-38,o),
(288,-65,o),
(331,-87,cs),
(517,-182,o),
(684,-104,o),
(700,85,cs),
(705,145,o),
(692,190,o),
(682,145,cs),
(641,-48,o),
(569,-79,o),
(306,-15,cs),
(226,4,o),
(160,22,o),
(157,23,cs),
(141,37,o),
(357,211,o),
(550,339,cs),
(800,506,o),
(1011,683,o),
(1021,736,cs),
(1025,757,o),
(1016,756,o),
(979,732,cs),
(924,694,o),
(824,704,o),
(697,760,cs),
(626,790,o),
(549,794,o)
);
}
);
width = 769;
}
);
unicode = 90;
},
{
glyphname = a;
lastChange = "2026-03-12 18:46:28 +0000";
layers = (
{
layerId = m01;
width = 600;
},
{
anchors = (
{
name = bottom;
pos = (300,0);
},
{
name = top;
pos = (300,320);
}
);
layerId = "00CACD6B-0B58-4977-961D-D953D4B3986F";
shapes = (
{
closed = 1;
nodes = (
(174,332,cs),
(57,296,o),
(-39,166,o),
(-21,70,cs),
(-6,-12,o),
(65,-4,o),
(164,90,c),
(207,132,l),
(207,91,l),
(207,25,o),
(259,-4,o),
(321,28,cs),
(369,53,o),
(465,177,o),
(449,194,cs),
(438,204,o),
(430,198,o),
(414,168,cs),
(384,107,o),
(331,57,o),
(303,60,cs),
(259,64,o),
(265,122,o),
(323,239,cs),
(349,289,o),
(367,332,o),
(365,335,cs),
(358,342,o),
(307,339,o),
(302,331,cs),
(298,326,o),
(289,326,o),
(276,331,cs),
(252,341,o),
(203,341,o)
);
},
{
closed = 1;
nodes = (
(276,309,cs),
(307,298,o),
(189,131,o),
(112,76,cs),
(61,39,o),
(45,43,o),
(46,91,cs),
(48,204,o),
(193,342,o)
);
}
);
width = 438;
}
);
unicode = 97;
},
{
glyphname = ae;
lastChange = "2026-03-12 18:47:04 +0000";
layers = (
{
layerId = "00CACD6B-0B58-4977-961D-D953D4B3986F";
shapes = (
{
closed = 1;
nodes = (
(174,332,cs),
(57,296,o),
(-39,166,o),
(-21,70,cs),
(-6,-12,o),
(65,-4,o),
(164,90,c),
(207,132,l),
(207,91,l),
(207,25,o),
(259,-4,o),
(321,28,cs),
(369,53,o),
(465,177,o),
(449,194,cs),
(438,204,o),
(430,198,o),
(414,168,cs),
(384,107,o),
(331,57,o),
(303,60,cs),
(259,64,o),
(265,122,o),
(323,239,cs),
(349,289,o),
(367,332,o),
(365,335,cs),
(358,342,o),
(307,339,o),
(302,331,cs),
(298,326,o),
(289,326,o),
(276,331,cs),
(252,341,o),
(203,341,o)
);
},
{
closed = 1;
nodes = (
(276,309,cs),
(307,298,o),
(189,131,o),
(112,76,cs),
(61,39,o),
(45,43,o),
(46,91,cs),
(48,204,o),
(193,342,o)
);
},
{
closed = 1;
nodes = (
(393,322,cs),
(251,256,o),
(194,49,o),
(309,17,cs),
(412,-11,o),
(616,103,o),
(616,188,cs),
(616,209,o),
(595,198,o),
(579,169,cs),
(535,87,o),
(384,22,o),
(339,67,cs),
(324,82,o),
(312,148,o),
(324,150,cs),
(356,155,o),
(369,157,o),
(405,168,cs),
(512,198,o),
(573,280,o),
(521,322,cs),
(499,341,o),
(433,341,o)
);
},
{
closed = 1;
nodes = (
(499,292,cs),
(505,253,o),
(414,183,o),
(358,182,cs),
(317,182,o),
(345,251,o),
(402,294,cs),
(438,322,o),
(495,320,o)
);
}
);
width = 600;
},
{
layerId = m01;
width = 600;
}
);
unicode = 230;
},
{
glyphname = b;
lastChange = "2026-03-12 18:46:28 +0000";
layers = (
{
layerId = m01;
width = 600;
},
{
anchors = (
{
name = bottom;
pos = (182,0);
},
{
name = top;
pos = (182,320);
}
);
layerId = "00CACD6B-0B58-4977-961D-D953D4B3986F";
shapes = (
{
closed = 1;
nodes = (
(389,751,cs),
(200,660,o),
(-67,205,o),
(-12,68,cs),
(18,-8,o),
(122,-4,o),
(180,76,cs),
(188,88,o),
(198,89,o),
(226,86,cs),
(278,79,o),
(394,160,o),
(376,190,cs),
(367,204,o),
(358,199,o),
(338,170,cs),
(322,145,o),
(265,108,o),
(245,108,cs),
(235,108,o),
(240,129,o),
(260,180,cs),
(288,246,o),
(294,291,o),
(281,322,cs),
(270,347,o),
(248,357,o),
(248,336,cs),
(248,330,o),
(231,291,o),
(210,251,cs),
(178,189,o),
(173,173,o),
(177,147,cs),
(187,87,o),
(100,23,o),
(61,62,cs),
(-1,124,o),
(68,262,o),
(215,373,cs),
(517,600,o),
(644,875,o)
);
},
{
closed = 1;
nodes = (
(486,736,cs),
(495,687,o),
(155,313,o),
(127,342,cs),
(118,351,o),
(178,453,o),
(273,591,cs),
(348,700,o),
(476,787,o)
);
}
);
width = 364;
}
);
unicode = 98;
},
{
glyphname = c;
lastChange = "2026-03-12 18:46:28 +0000";
layers = (
{
layerId = m01;
width = 600;
},
{
anchors = (
{
name = bottom;
pos = (157,0);
},
{
name = top;
pos = (272,320);
}
);
layerId = "00CACD6B-0B58-4977-961D-D953D4B3986F";
shapes = (
{
closed = 1;
nodes = (
(141,327,cs),
(-35,272,o),
(-94,30,o),
(63,12,cs),
(158,1,o),
(369,149,o),
(322,193,cs),
(314,200,o),
(311,200,o),
(308,192,cs),
(274,100,o),
(103,20,o),
(55,73,cs),
(12,120,o),
(71,261,o),
(150,303,cs),
(217,337,o),
(288,292,o),
(232,251,cs),
(212,236,o),
(229,228,o),
(251,242,cs),
(331,295,o),
(246,360,o)
);
}
);
width = 314;
}
);
unicode = 99;
},
{
glyphname = d;
lastChange = "2026-03-12 18:46:28 +0000";
layers = (
{
layerId = m01;
width = 600;
},
{
anchors = (
{
name = bottom;
pos = (206,0);
},
{
name = top;
pos = (206,320);
}
);
layerId = "00CACD6B-0B58-4977-961D-D953D4B3986F";
shapes = (
{
closed = 1;
nodes = (
(584,751,cs),
(535,723,o),
(442,632,o),
(394,563,cs),
(364,519,o),
(264,346,o),
(264,338,cs),
(264,335,o),
(250,334,o),
(232,337,cs),
(150,347,o),
(37,280,o),
(-4,194,cs),
(-76,48,o),
(21,-43,o),
(133,66,cs),
(178,110,o),
(182,113,o),
(182,94,cs),
(182,33,o),
(240,-4,o),
(293,21,cs),
(343,45,o),
(438,159,o),
(438,194,cs),
(438,218,o),
(405,189,o),
(384,147,cs),
(339,53,o),
(260,20,o),
(261,95,cs),
(262,192,o),
(279,220,o),
(394,322,cs),
(582,489,o),
(672,595,o),
(699,682,cs),
(727,770,o),
(676,801,o)
);
},
{
closed = 1;
nodes = (
(678,727,cs),
(678,665,o),
(340,261,o),
(324,305,cs),
(315,332,o),
(453,573,o),
(527,657,cs),
(596,736,o),
(678,774,o)
);
},
{
closed = 1;
nodes = (
(235,303,cs),
(265,281,o),
(149,89,o),
(83,54,cs),
(51,37,o),
(33,51,o),
(33,90,cs),
(33,206,o),
(169,351,o)
);
}
);
width = 413;
}
);
unicode = 100;
},
{
glyphname = eth;
lastChange = "2026-03-12 18:47:04 +0000";
layers = (
{
layerId = "00CACD6B-0B58-4977-961D-D953D4B3986F";
shapes = (
{
closed = 1;
nodes = (
(174,663,cs),
(174,659,o),
(183,635,o),
(194,611,cs),
(205,586,o),
(217,551,o),
(219,533,c),
(225,499,l),
(183,480,l),
(160,469,o),
(141,457,o),
(141,453,cs),
(141,439,o),
(166,437,o),
(186,450,cs),
(228,477,o),
(240,459,o),
(240,366,cs),
(240,326,o),
(238,322,o),
(226,327,cs),
(173,348,o),
(168,348,o),
(122,331,cs),
(9,289,o),
(-66,141,o),
(-17,60,cs),
(23,-5,o),
(95,-6,o),
(167,57,cs),
(193,79,o),
(200,82,o),
(218,75,cs),
(264,57,o),
(391,161,o),
(368,199,cs),
(359,213,o),
(351,208,o),
(335,177,cs),
(317,143,o),
(262,91,o),
(244,91,cs),
(228,91,o),
(226,84,o),
(260,162,cs),
(299,257,o),
(309,311,o),
(303,410,c),
(298,494,l),
(351,528,l),
(388,551,o),
(405,566,o),
(405,579,cs),
(405,599,o),
(403,599,o),
(365,576,c),
(308,542,l),
(281,529,l),
(269,556,l),
(246,610,o),
(174,691,o)
);
},
{
closed = 1;
nodes = (
(216,306,cs),
(237,294,o),
(236,284,o),
(203,222,cs),
(188,193,o),
(169,148,o),
(162,123,cs),
(129,14,o),
(35,13,o),
(43,122,cs),
(51,241,o),
(147,342,o)
);
}
);
width = 355;
},
{
layerId = m01;
width = 600;
}
);
unicode = 240;
},
{
glyphname = e;
lastChange = "2026-03-12 18:46:28 +0000";
layers = (
{
layerId = m01;
width = 600;
},
{
anchors = (
{
name = bottom;
pos = (272,0);
},
{
name = top;
pos = (272,320);
}
);
layerId = "00CACD6B-0B58-4977-961D-D953D4B3986F";
shapes = (
{
closed = 1;
nodes = (
(124,322,cs),
(-18,256,o),
(-75,49,o),
(40,17,cs),
(143,-11,o),
(347,103,o),
(347,188,cs),
(347,209,o),
(326,198,o),
(310,169,cs),
(266,87,o),
(115,22,o),
(70,67,cs),
(55,82,o),
(43,148,o),
(55,150,cs),
(87,155,o),
(100,157,o),
(136,168,cs),
(243,198,o),
(304,280,o),
(252,322,cs),
(230,341,o),
(164,341,o)
);
},
{
closed = 1;
nodes = (
(230,292,cs),
(236,253,o),
(145,183,o),
(89,182,cs),
(48,182,o),
(76,251,o),
(133,294,cs),
(169,322,o),
(226,320,o)
);
}
);
width = 331;
}
);
unicode = 101;
},
{
glyphname = f;
lastChange = "2026-03-12 18:46:28 +0000";
layers = (
{
layerId = m01;
width = 600;
},
{
anchors = (
{
name = bottom;
pos = (99,0);
},
{
name = top;
pos = (99,320);
}
);
layerId = "00CACD6B-0B58-4977-961D-D953D4B3986F";
shapes = (
{
closed = 1;
nodes = (
(381,763,cs),
(250,717,o),
(128,527,o),
(-72,58,cs),
(-165,-159,o),
(-218,-239,o),
(-289,-268,cs),
(-313,-277,o),
(-322,-286,o),
(-322,-298,cs),
(-322,-310,o),
(-318,-314,o),
(-311,-311,c),
(-263,-297,l),
(-179,-274,o),
(-74,-133,o),
(-7,51,cs),
(3,79,o),
(15,98,o),
(20,96,cs),
(73,74,o),
(89,72,o),
(126,90,cs),
(167,110,o),
(221,180,o),
(206,194,cs),
(200,200,o),
(194,198,o),
(188,186,cs),
(157,131,o),
(111,112,o),
(62,134,cs),
(26,151,o),
(63,241,o),
(129,294,cs),
(472,575,o),
(619,847,o)
);
},
{
closed = 1;
nodes = (
(460,740,cs),
(467,722,o),
(449,681,o),
(406,620,cs),
(360,555,o),
(131,322,o),
(126,337,cs),
(123,346,o),
(204,515,o),
(237,568,cs),
(313,689,o),
(441,789,o)
);
}
);
width = 198;
}
);
unicode = 102;
},
{
glyphname = g;
lastChange = "2026-03-12 18:46:28 +0000";
layers = (
{
layerId = m01;
width = 600;
},
{
anchors = (
{
name = bottom;
pos = (198,0);
},
{
name = top;
pos = (198,320);
}
);
layerId = "00CACD6B-0B58-4977-961D-D953D4B3986F";
shapes = (
{
closed = 1;
nodes = (
(162,326,cs),
(20,282,o),
(-79,113,o),
(-7,36,cs),
(26,1,o),
(63,10,o),
(136,72,cs),
(174,103,o),
(187,108,o),
(170,81,cs),
(164,70,o),
(150,36,o),
(141,3,cs),
(120,-67,o),
(110,-78,o),
(80,-67,cs),
(-101,2,o),
(-284,-58,o),
(-270,-181,cs),
(-251,-353,o),
(24,-332,o),
(141,-149,c),
(154,-130,l),
(254,-148,l),
(373,-168,o),
(399,-169,o),
(412,-154,cs),
(425,-139,o),
(414,-135,o),
(343,-128,cs),
(281,-121,o),
(174,-100,o),
(174,-93,cs),
(174,-58,o),
(212,8,o),
(238,18,cs),
(307,46,o),
(399,133,o),
(407,178,cs),
(411,207,o),
(391,196,o),
(362,153,cs),
(331,108,o),
(251,38,o),
(240,46,cs),
(231,51,o),
(243,82,o),
(311,221,cs),
(340,280,o),
(364,332,o),
(364,334,cs),
(364,343,o),
(301,339,o),
(292,330,cs),
(285,323,o),
(278,323,o),
(266,330,cs),
(244,342,o),
(212,341,o)
);
},
{
closed = 1;
nodes = (
(264,306,cs),
(295,287,o),
(154,93,o),
(90,65,cs),
(0,28,o),
(38,194,o),
(136,270,cs),
(183,305,o),
(240,322,o)
);
},
{
closed = 1;
nodes = (
(23,-79,c),
(81,-95,l),
(95,-100,o),
(67,-155,o),
(27,-199,cs),
(-80,-317,o),
(-270,-256,o),
(-203,-125,cs),
(-174,-68,o),
(-81,-50,o)
);
}
);
width = 397;
}
);
unicode = 103;
},
{
glyphname = h;
lastChange = "2026-03-12 18:46:28 +0000";
layers = (
{
layerId = m01;
width = 600;
},
{
anchors = (
{
name = bottom;
pos = (190,0);
},
{
name = top;
pos = (190,320);
}
);
layerId = "00CACD6B-0B58-4977-961D-D953D4B3986F";
shapes = (
{
closed = 1;
nodes = (
(404,755,cs),
(269,687,o),
(115,464,o),
(-36,114,cs),
(-83,8,o),
(-82,8,o),
(-43,8,cs),
(-12,8,o),
(-12,9,o),
(22,77,cs),
(64,158,o),
(117,227,o),
(174,273,cs),
(255,337,o),
(269,308,o),
(207,203,cs),
(129,68,o),
(145,-18,o),
(242,16,cs),
(296,35,o),
(397,146,o),
(397,185,cs),
(397,208,o),
(383,199,o),
(361,163,cs),
(322,95,o),
(241,39,o),
(223,66,cs),
(214,81,o),
(224,110,o),
(268,194,cs),
(352,353,o),
(279,398,o),
(138,272,cs),
(82,222,o),
(81,225,o),
(126,309,cs),
(159,370,o),
(164,375,o),
(196,385,cs),
(322,422,o),
(537,628,o),
(537,715,cs),
(537,779,o),
(485,794,o)
);
},
{
closed = 1;
nodes = (
(501,740,cs),
(520,691,o),
(329,479,o),
(208,414,cs),
(183,400,o),
(181,403,o),
(193,433,cs),
(260,591,o),
(475,807,o)
);
}
);
width = 380;
}
);
unicode = 104;
},
{
glyphname = i;
lastChange = "2026-03-12 18:46:28 +0000";
layers = (
{
layerId = m01;
width = 600;
},
{
anchors = (
{
name = bottom;
pos = (99,0);
},
{
name = top;
pos = (99,320);
}
);
layerId = "00CACD6B-0B58-4977-961D-D953D4B3986F";
shapes = (
{
closed = 1;
nodes = (
(138,496,cs),
(94,461,o),
(102,413,o),
(152,413,cs),
(189,413,o),
(223,441,o),
(223,471,cs),
(223,513,o),
(176,526,o)
);
},
{
closed = 1;
nodes = (
(68,329,cs),
(-12,229,o),
(-52,47,o),
(0,18,cs),
(54,-11,o),
(214,118,o),
(215,193,cs),
(215,212,o),
(188,194,o),
(170,162,cs),
(59,-29,o),
(-7,27,o),
(92,231,c),
(141,336,l),
(141,344,o),
(75,337,o)
);
}
);
width = 198;
}
);
unicode = 105;
},
{
glyphname = idotless;
lastChange = "2026-03-12 18:47:04 +0000";
layers = (
{
anchors = (
{
name = top;
pos = (99,320);
}
);
layerId = "00CACD6B-0B58-4977-961D-D953D4B3986F";
shapes = (
{
closed = 1;
nodes = (
(68,329,cs),
(-12,229,o),
(-52,47,o),
(0,18,cs),
(54,-11,o),
(214,118,o),
(215,193,cs),
(215,212,o),
(188,194,o),
(170,162,cs),
(59,-29,o),
(-7,27,o),
(92,231,c),
(141,336,l),
(141,344,o),
(75,337,o)
);
}
);
width = 198;
},
{
layerId = m01;
width = 600;
}
);
unicode = 305;
},
{
glyphname = j;
lastChange = "2026-03-12 18:46:28 +0000";
layers = (
{
layerId = m01;
width = 600;
},
{
anchors = (
{
name = bottom;
pos = (91,0);
},
{
name = top;
pos = (91,320);
}
);
layerId = "00CACD6B-0B58-4977-961D-D953D4B3986F";
shapes = (
{
closed = 1;
nodes = (
(148,489,cs),
(110,451,o),
(120,413,o),
(168,413,cs),
(195,413,o),
(240,453,o),
(240,477,cs),
(240,518,o),
(185,526,o)
);
},
{
closed = 1;
nodes = (
(83,348,cs),
(83,344,o),
(69,317,o),
(53,288,cs),
(24,237,o),
(-49,76,o),
(-84,-16,cs),
(-101,-58,o),
(-102,-59,o),
(-127,-54,cs),
(-298,-20,o),
(-430,-75,o),
(-430,-181,cs),
(-430,-349,o),
(-181,-328,o),
(-78,-152,cs),
(-53,-110,o),
(-54,-110,o),
(54,-135,cs),
(167,-163,o),
(203,-166,o),
(216,-152,cs),
(230,-135,o),
(225,-132,o),
(136,-119,cs),
(6,-99,o),
(-36,-85,o),
(-30,-61,cs),
(-19,-19,o),
(-8,-1,o),
(10,5,cs),
(63,22,o),
(205,165,o),
(196,193,cs),
(189,213,o),
(177,205,o),
(155,170,cs),
(131,134,o),
(28,33,o),
(14,33,cs),
(2,33,o),
(16,65,o),
(86,209,cs),
(123,285,o),
(152,350,o),
(150,351,cs),
(143,359,o),
(83,356,o)
);
},
{
closed = 1;
nodes = (
(-155,-73,cs),
(-112,-83,o),
(-112,-84,o),
(-133,-128,cs),
(-204,-270,o),
(-372,-316,o),
(-372,-194,cs),
(-372,-103,o),
(-270,-47,o)
);
}
);
width = 182;
}
);
unicode = 106;
},
{
glyphname = jdotless;
lastChange = "2026-03-12 18:47:04 +0000";
layers = (
{
anchors = (
{
name = top;
pos = (91,320);
}
);
layerId = "00CACD6B-0B58-4977-961D-D953D4B3986F";
shapes = (
{
closed = 1;
nodes = (
(83,348,cs),
(83,344,o),
(69,317,o),
(53,288,cs),
(24,237,o),
(-49,76,o),
(-84,-16,cs),
(-101,-58,o),
(-102,-59,o),
(-127,-54,cs),
(-298,-20,o),
(-430,-75,o),
(-430,-181,cs),
(-430,-349,o),
(-181,-328,o),
(-78,-152,cs),
(-53,-110,o),
(-54,-110,o),
(54,-135,cs),
(167,-163,o),
(203,-166,o),
(216,-152,cs),
(230,-135,o),
(225,-132,o),
(136,-119,cs),
(6,-99,o),
(-36,-85,o),
(-30,-61,cs),
(-19,-19,o),
(-8,-1,o),
(10,5,cs),
(63,22,o),
(205,165,o),
(196,193,cs),
(189,213,o),
(177,205,o),
(155,170,cs),
(131,134,o),
(28,33,o),
(14,33,cs),
(2,33,o),
(16,65,o),
(86,209,cs),
(123,285,o),
(152,350,o),
(150,351,cs),
(143,359,o),
(83,356,o)
);
},
{
closed = 1;
nodes = (
(-155,-73,cs),
(-112,-83,o),
(-112,-84,o),
(-133,-128,cs),
(-204,-270,o),
(-372,-316,o),
(-372,-194,cs),
(-372,-103,o),
(-270,-47,o)
);
}
);
width = 182;
},
{
layerId = m01;
width = 600;
}
);
unicode = 567;
},
{
glyphname = k;
lastChange = "2026-03-12 18:46:28 +0000";
layers = (
{
layerId = m01;
width = 600;
},
{
anchors = (
{
name = bottom;
pos = (182,0);
},
{
name = top;
pos = (182,320);
}
);
layerId = "00CACD6B-0B58-4977-961D-D953D4B3986F";
shapes = (
{
closed = 1;
nodes = (
(411,749,cs),
(255,655,o),
(133,485,o),
(-33,128,cs),
(-87,13,o),
(-86,17,o),
(-59,17,cs),
(-45,17,o),
(-29,14,o),
(-21,12,cs),
(-14,8,o),
(-8,11,o),
(-8,17,cs),
(-8,59,o),
(51,147,o),
(86,157,cs),
(138,171,o),
(143,165,o),
(136,102,cs),
(122,-35,o),
(270,-12,o),
(355,137,cs),
(403,221,o),
(380,221,o),
(324,137,cs),
(259,39,o),
(198,23,o),
(198,103,cs),
(198,122,o),
(193,145,o),
(186,154,cs),
(169,176,o),
(169,177,o),
(210,189,cs),
(302,217,o),
(355,300,o),
(303,335,cs),
(274,354,o),
(209,333,o),
(143,284,cs),
(110,259,o),
(110,261,o),
(141,325,cs),
(167,377,o),
(168,378,o),
(229,401,cs),
(368,454,o),
(511,587,o),
(543,693,cs),
(568,776,o),
(503,804,o)
);
},
{
closed = 1;
nodes = (
(511,734,cs),
(522,678,o),
(377,518,o),
(247,444,cs),
(188,409,o),
(185,414,o),
(226,480,cs),
(331,656,o),
(498,804,o)
);
},
{
closed = 1;
nodes = (
(244,284,cs),
(233,240,o),
(150,186,o),
(102,192,c),
(80,194,l),
(112,226,l),
(176,289,o),
(254,322,o)
);
}
);
width = 364;
}
);
unicode = 107;
},
{
glyphname = l;
lastChange = "2026-03-12 18:46:28 +0000";
layers = (
{
layerId = m01;
width = 600;
},
{
anchors = (
{
name = bottom;
pos = (103,0);
},
{
name = top;
pos = (103,320);
}
);
layerId = "00CACD6B-0B58-4977-961D-D953D4B3986F";
shapes = (
{
closed = 1;
nodes = (
(388,755,cs),
(160,644,o),
(-122,88,o),
(15,20,cs),
(69,-7,o),
(187,81,o),
(223,177,cs),
(239,218,o),
(211,200,o),
(174,145,cs),
(107,41,o),
(37,18,o),
(37,99,cs),
(38,208,o),
(68,256,o),
(202,361,cs),
(436,548,o),
(555,716,o),
(486,764,cs),
(460,782,o),
(440,780,o)
);
},
{
closed = 1;
nodes = (
(471,721,cs),
(471,670,o),
(342,515,o),
(196,391,cs),
(94,304,o),
(95,316,o),
(201,495,cs),
(303,666,o),
(471,808,o)
);
}
);
width = 207;
}
);
unicode = 108;
},
{
glyphname = m;
lastChange = "2026-03-12 18:46:28 +0000";
layers = (
{
layerId = m01;
width = 600;
},
{
anchors = (
{
name = bottom;
pos = (285,0);
},
{
name = top;
pos = (285,320);
}
);
layerId = "00CACD6B-0B58-4977-961D-D953D4B3986F";
shapes = (
{
closed = 1;
nodes = (
(36,273,l),
(-4,190,o),
(-21,155,o),
(-59,65,c),
(-82,8,l),
(-45,8,l),
(-12,8,o),
(-9,10,o),
(-1,36,cs),
(29,124,o),
(166,298,o),
(207,298,cs),
(236,298,o),
(225,251,o),
(166,129,cs),
(112,14,o),
(111,8,o),
(153,8,cs),
(179,8,o),
(182,12,o),
(223,89,cs),
(279,192,o),
(303,228,o),
(350,271,cs),
(422,337,o),
(432,309,o),
(376,199,cs),
(271,-6,o),
(404,-65,o),
(546,123,cs),
(577,165,o),
(588,199,o),
(570,199,cs),
(566,199,o),
(557,189,o),
(550,176,cs),
(512,102,o),
(430,41,o),
(408,70,cs),
(394,90,o),
(397,101,o),
(444,201,cs),
(511,345,o),
(447,394,o),
(333,287,c),
(288,245,l),
(290,274,l),
(296,363,o),
(231,367,o),
(141,284,cs),
(83,231,o),
(83,232,o),
(116,298,cs),
(146,358,o),
(147,354,o),
(107,352,c),
(74,351,l)
);
}
);
width = 570;
}
);
unicode = 109;
},
{
glyphname = n;
lastChange = "2026-03-12 18:46:28 +0000";
layers = (
{
layerId = m01;
width = 600;
},
{
anchors = (
{
name = bottom;
pos = (252,0);
},
{
name = top;
pos = (252,320);
}
);
layerId = "00CACD6B-0B58-4977-961D-D953D4B3986F";
shapes = (
{
closed = 1;
nodes = (
(44,303,c),
(-20,157,l),
(-83,14,o),
(-83,8,o),
(-48,8,cs),
(-22,8,o),
(-18,12,o),
(6,60,cs),
(53,156,o),
(174,298,o),
(208,298,cs),
(231,298,o),
(226,280,o),
(178,179,cs),
(80,-26,o),
(242,-56,o),
(360,146,cs),
(393,201,o),
(374,212,o),
(340,158,cs),
(237,-2,o),
(168,27,o),
(249,196,cs),
(291,284,o),
(295,302,o),
(279,322,cs),
(253,354,o),
(175,328,o),
(131,274,c),
(88,220,l),
(50,175,o),
(53,190,o),
(93,268,cs),
(134,346,o),
(134,347,o),
(92,347,cs),
(64,347,o),
(61,345,o)
);
}
);
width = 364;
}
);
unicode = 110;
},
{
glyphname = o;
lastChange = "2026-03-12 18:46:28 +0000";
layers = (
{
layerId = m01;
width = 600;
},
{
anchors = (
{
name = bottom;
pos = (226,0);
},
{
name = top;
pos = (226,320);
}
);
layerId = "00CACD6B-0B58-4977-961D-D953D4B3986F";
shapes = (
{
closed = 1;
nodes = (
(131,335,cs),
(21,294,o),
(-59,149,o),
(-17,65,cs),
(17,-8,o),
(121,-11,o),
(190,60,cs),
(206,75,o),
(219,80,o),
(245,80,cs),
(287,80,o),
(317,100,o),
(343,145,cs),
(383,211,o),
(360,214,o),
(314,149,cs),
(289,113,o),
(281,108,o),
(258,108,c),
(230,108,l),
(248,137,l),
(258,152,o),
(263,165,o),
(260,165,cs),
(257,165,o),
(259,171,o),
(264,178,cs),
(270,184,o),
(272,190,o),
(268,190,cs),
(264,190,o),
(265,194,o),
(271,200,cs),
(336,265,o),
(226,370,o)
);
},
{
closed = 1;
nodes = (
(222,313,cs),
(241,294,o),
(229,240,o),
(201,219,cs),
(183,206,o),
(165,147,o),
(175,130,cs),
(196,90,o),
(109,19,o),
(67,42,cs),
(-7,84,o),
(98,322,o),
(190,322,cs),
(202,322,o),
(216,318,o)
);
}
);
width = 347;
}
);
unicode = 111;
},
{
glyphname = oe;
lastChange = "2026-03-12 18:47:04 +0000";
layers = (
{
layerId = "00CACD6B-0B58-4977-961D-D953D4B3986F";
shapes = (
{
closed = 1;
nodes = (
(131,335,cs),
(21,294,o),
(-59,149,o),
(-17,65,cs),
(17,-8,o),
(121,-11,o),
(190,60,cs),
(206,75,o),
(219,80,o),
(245,80,cs),
(287,80,o),
(317,100,o),
(343,145,cs),
(383,211,o),
(360,214,o),
(314,149,cs),
(289,113,o),
(281,108,o),
(258,108,c),
(230,108,l),
(248,137,l),
(258,152,o),
(263,165,o),
(260,165,cs),
(257,165,o),
(259,171,o),
(264,178,cs),
(270,184,o),
(272,190,o),
(268,190,cs),
(264,190,o),
(265,194,o),
(271,200,cs),
(336,265,o),
(226,370,o)
);
},
{
closed = 1;
nodes = (
(222,313,cs),
(241,294,o),
(229,240,o),
(201,219,cs),
(183,206,o),
(165,147,o),
(175,130,cs),
(196,90,o),
(109,19,o),
(67,42,cs),
(-7,84,o),
(98,322,o),
(190,322,cs),
(202,322,o),
(216,318,o)
);
},
{
closed = 1;
nodes = (
(302,322,cs),
(160,256,o),
(103,49,o),
(218,17,cs),
(321,-11,o),
(525,103,o),
(525,188,cs),
(525,209,o),
(504,198,o),
(488,169,cs),
(444,87,o),
(293,22,o),
(248,67,cs),
(233,82,o),
(221,148,o),
(233,150,cs),
(265,155,o),
(278,157,o),
(314,168,cs),
(421,198,o),
(482,280,o),
(430,322,cs),
(408,341,o),
(342,341,o)
);
},
{
closed = 1;
nodes = (
(408,292,cs),
(414,253,o),
(323,183,o),
(267,182,cs),
(226,182,o),
(254,251,o),
(311,294,cs),
(347,322,o),
(404,320,o)
);
}
);
width = 509;
},
{
layerId = m01;
width = 600;
}
);
unicode = 339;
},
{
glyphname = p;
lastChange = "2026-03-12 18:46:28 +0000";
layers = (
{
layerId = m01;
width = 600;
},
{
anchors = (
{
name = bottom;
pos = (182,0);
},
{
name = top;
pos = (182,320);
}
);
layerId = "00CACD6B-0B58-4977-961D-D953D4B3986F";
shapes = (
{
closed = 1;
nodes = (
(50,333,cs),
(46,325,o),
(43,315,o),
(43,312,cs),
(43,308,o),
(37,293,o),
(31,279,cs),
(15,246,o),
(-8,194,o),
(-70,51,c),
(-118,-59,l),
(-144,-53,l),
(-296,-18,o),
(-438,-90,o),
(-438,-200,cs),
(-438,-367,o),
(-175,-321,o),
(-82,-139,cs),
(-63,-102,o),
(-68,-102,o),
(18,-127,cs),
(131,-159,o),
(153,-160,o),
(164,-136,cs),
(173,-116,o),
(172,-116,o),
(146,-116,cs),
(92,-116,o),
(-41,-78,o),
(-41,-64,cs),
(-41,-45,o),
(-4,41,o),
(3,41,cs),
(7,41,o),
(18,35,o),
(26,27,cs),
(88,-29,o),
(198,24,o),
(254,137,cs),
(341,315,o),
(244,415,o),
(117,278,cs),
(78,235,o),
(74,240,o),
(103,298,cs),
(130,349,o),
(130,347,o),
(91,347,cs),
(69,347,o),
(56,343,o)
);
},
{
closed = 1;
nodes = (
(222,262,cs),
(211,129,o),
(98,8,o),
(36,61,c),
(13,80,l),
(41,137,l),
(105,267,o),
(229,353,o)
);
},
{
closed = 1;
nodes = (
(-150,-82,cs),
(-116,-103,o),
(-223,-244,o),
(-289,-264,cs),
(-363,-286,o),
(-407,-215,o),
(-364,-144,cs),
(-333,-92,o),
(-196,-52,o)
);
},
{
closed = 1;
nodes = (
(368,192,cs),
(363,189,o),
(347,167,o),
(332,144,cs),
(305,101,o),
(228,37,o),
(193,28,cs),
(163,21,o),
(169,5,o),
(200,12,cs),
(257,23,o),
(331,87,o),
(367,156,cs),
(382,184,o),
(382,202,o)
);
}
);
width = 364;
}
);
unicode = 112;
},
{
glyphname = q;
lastChange = "2026-03-12 18:46:28 +0000";
layers = (
{
layerId = m01;
width = 600;
},
{
anchors = (
{
name = bottom;
pos = (186,0);
},
{
name = top;
pos = (186,320);
}
);
layerId = "00CACD6B-0B58-4977-961D-D953D4B3986F";
shapes = (
{
closed = 1;
nodes = (
(145,324,cs),
(36,289,o),
(-67,113,o),
(-18,44,cs),
(15,-2,o),
(74,5,o),
(120,60,cs),
(165,114,o),
(164,98,o),
(115,-2,c),
(65,-103,l),
(2,-108,l),
(-124,-118,o),
(-226,-168,o),
(-257,-234,cs),
(-276,-276,o),
(-277,-289,o),
(-260,-289,cs),
(-254,-289,o),
(-248,-282,o),
(-248,-273,cs),
(-248,-220,o),
(-124,-149,o),
(-17,-142,c),
(43,-138,l),
(37,-158,l),
(31,-180,o),
(-3,-229,o),
(-25,-248,cs),
(-63,-282,o),
(-45,-300,o),
(6,-280,cs),
(33,-270,o),
(98,-202,o),
(104,-177,cs),
(108,-160,o),
(112,-159,o),
(255,-160,cs),
(388,-161,o),
(401,-159,o),
(403,-147,cs),
(406,-134,o),
(397,-132,o),
(304,-131,cs),
(248,-131,o),
(184,-128,o),
(161,-125,c),
(120,-120,l),
(150,-91,l),
(332,84,o),
(397,163,o),
(380,190,cs),
(372,204,o),
(373,205,o),
(345,156,cs),
(318,110,o),
(196,-22,o),
(192,-9,cs),
(190,-4,o),
(226,73,o),
(272,162,cs),
(317,251,o),
(353,327,o),
(350,332,cs),
(344,343,o),
(312,341,o),
(292,327,cs),
(277,316,o),
(274,316,o),
(264,327,cs),
(251,342,o),
(198,342,o)
);
},
{
closed = 1;
nodes = (
(252,303,cs),
(266,293,o),
(241,224,o),
(215,199,cs),
(212,196,o),
(196,173,o),
(179,146,cs),
(114,52,o),
(36,25,o),
(39,98,cs),
(44,207,o),
(190,348,o)
);
}
);
width = 372;
}
);
unicode = 113;
},
{
glyphname = r;
lastChange = "2026-03-12 18:46:28 +0000";
layers = (
{
layerId = m01;
width = 600;
},
{
anchors = (
{
name = bottom;
pos = (153,0);
},
{
name = top;
pos = (153,320);
}
);
layerId = "00CACD6B-0B58-4977-961D-D953D4B3986F";
shapes = (
{
closed = 1;
nodes = (
(66,378,cs),
(66,370,o),
(51,328,o),
(33,285,cs),
(-16,170,o),
(-9,139,o),
(43,238,cs),
(75,298,o),
(73,297,o),
(142,284,c),
(173,280,l),
(149,255,l),
(95,201,o),
(59,86,o),
(83,42,cs),
(118,-25,o),
(250,38,o),
(310,151,cs),
(341,208,o),
(312,203,o),
(274,145,cs),
(203,38,o),
(108,22,o),
(141,122,cs),
(164,192,o),
(198,256,o),
(236,298,cs),
(282,350,o),
(277,370,o),
(224,341,cs),
(171,311,o),
(134,316,o),
(98,357,cs),
(75,383,o),
(67,389,o)
);
}
);
width = 306;
}
);
unicode = 114;
},
{
glyphname = s;
lastChange = "2026-03-12 18:46:28 +0000";
layers = (
{
layerId = m01;
width = 600;
},
{
anchors = (
{
name = bottom;
pos = (239,0);
},
{
name = top;
pos = (239,320);
}
);
layerId = "00CACD6B-0B58-4977-961D-D953D4B3986F";
shapes = (
{
closed = 1;
nodes = (
(131,336,cs),
(85,319,o),
(26,265,o),
(1,217,cs),
(-21,175,o),
(4,187,o),
(68,251,c),
(136,318,l),
(139,281,l),
(141,261,o),
(145,239,o),
(150,233,cs),
(162,220,o),
(160,147,o),
(148,110,cs),
(131,59,o),
(63,23,o),
(35,51,cs),
(15,71,o),
(23,108,o),
(54,135,cs),
(85,162,o),
(91,182,o),
(67,182,cs),
(45,182,o),
(-13,123,o),
(-20,95,cs),
(-44,0,o),
(84,-23,o),
(183,59,cs),
(205,77,o),
(226,91,o),
(230,91,cs),
(243,91,o),
(314,169,o),
(314,184,cs),
(314,205,o),
(303,202,o),
(287,176,cs),
(250,116,o),
(209,88,o),
(221,131,cs),
(231,167,o),
(226,242,o),
(212,269,cs),
(197,297,o),
(194,319,o),
(207,327,cs),
(240,347,o),
(182,354,o)
);
}
);
width = 306;
}
);
unicode = 115;
},
{
glyphname = germandbls;
lastChange = "2026-03-12 18:47:04 +0000";
layers = (
{
layerId = "00CACD6B-0B58-4977-961D-D953D4B3986F";
shapes = (
{
closed = 1;
nodes = (
(310,650,cs),
(176,588,o),
(93,466,o),
(-70,95,cs),
(-168,-126,o),
(-197,-180,o),
(-249,-234,cs),
(-307,-294,o),
(-298,-306,o),
(-223,-270,cs),
(-150,-235,o),
(-68,-92,o),
(79,256,cs),
(192,524,o),
(279,630,o),
(403,650,cs),
(511,667,o),
(483,570,o),
(360,500,cs),
(262,446,o),
(240,405,o),
(240,283,cs),
(240,153,o),
(228,104,o),
(188,70,cs),
(136,27,o),
(83,31,o),
(83,79,cs),
(83,107,o),
(90,118,o),
(131,151,cs),
(171,183,o),
(134,194,o),
(85,165,cs),
(21,124,o),
(16,51,o),
(76,20,cs),
(175,-31,o),
(413,94,o),
(413,197,cs),
(413,227,o),
(397,215,o),
(364,162,cs),
(348,136,o),
(323,105,o),
(310,94,c),
(285,75,l),
(285,229,l),
(286,382,l),
(315,408,l),
(331,423,o),
(373,450,o),
(407,469,cs),
(597,575,o),
(507,742,o)
);
}
);
width = 388;
},
{
layerId = m01;
width = 600;
}
);
unicode = 223;
},
{
glyphname = t;
lastChange = "2026-03-12 18:46:28 +0000";
layers = (
{
layerId = m01;
width = 600;
},
{
anchors = (
{
name = bottom;
pos = (128,0);
},
{
name = top;
pos = (128,320);
}
);
layerId = "00CACD6B-0B58-4977-961D-D953D4B3986F";
shapes = (
{
closed = 1;
nodes = (
(403,761,cs),
(327,737,o),
(141,537,o),
(106,442,cs),
(94,409,o),
(82,403,o),
(53,413,cs),
(20,427,o),
(0,423,o),
(0,407,cs),
(0,396,o),
(10,389,o),
(33,381,cs),
(83,366,o),
(76,349,o),
(19,346,cs),
(-41,342,o),
(-60,314,o),
(-1,314,cs),
(34,314,o),
(48,303,o),
(35,287,cs),
(-4,237,o),
(-18,92,o),
(11,46,cs),
(57,-25,o),
(183,27,o),
(252,146,cs),
(286,203,o),
(265,213,o),
(229,156,cs),
(120,-12,o),
(15,28,o),
(78,215,cs),
(112,318,o),
(108,314,o),
(223,314,c),
(322,314,l),
(322,337,l),
(322,358,l),
(231,353,l),
(132,347,o),
(121,355,o),
(193,375,cs),
(337,418,o),
(560,717,o),
(480,761,cs),
(461,770,o),
(436,770,o)
);
},
{
closed = 1;
nodes = (
(463,723,cs),
(463,632,o),
(254,414,o),
(167,413,cs),
(145,413,o),
(275,613,o),
(338,676,cs),
(407,745,o),
(463,766,o)
);
}
);
width = 256;
}
);
unicode = 116;
},
{
glyphname = u;
lastChange = "2026-03-12 18:46:28 +0000";
layers = (
{
layerId = m01;
width = 600;
},
{
anchors = (
{
name = bottom;
pos = (256,0);
},
{
name = top;
pos = (256,320);
}
);
layerId = "00CACD6B-0B58-4977-961D-D953D4B3986F";
shapes = (
{
closed = 1;
nodes = (
(26,251,l),
(-71,47,o),
(-14,-75,o),
(118,54,c),
(147,82,l),
(152,57,l),
(160,19,o),
(205,3,o),
(251,20,cs),
(293,36,o),
(355,94,o),
(355,115,cs),
(355,120,o),
(361,127,o),
(368,130,cs),
(386,141,o),
(409,199,o),
(393,193,cs),
(385,190,o),
(374,178,o),
(367,165,cs),
(350,130,o),
(307,84,o),
(280,70,cs),
(195,26,o),
(202,98,o),
(297,261,cs),
(347,346,o),
(347,339,o),
(304,339,cs),
(269,339,o),
(269,339,o),
(240,283,cs),
(224,252,o),
(208,226,o),
(206,223,cs),
(202,221,o),
(193,203,o),
(182,182,cs),
(121,61,o),
(17,10,o),
(38,112,cs),
(44,138,o),
(99,266,o),
(108,273,cs),
(114,278,o),
(141,327,o),
(141,335,cs),
(141,337,o),
(125,339,o),
(105,339,c),
(69,339,l)
);
}
);
width = 388;
}
);
unicode = 117;
},
{
glyphname = v;
lastChange = "2026-03-12 18:46:28 +0000";
layers = (
{
layerId = m01;
width = 600;
},
{
anchors = (
{
name = bottom;
pos = (182,0);
},
{
name = top;
pos = (182,320);
}
);
layerId = "00CACD6B-0B58-4977-961D-D953D4B3986F";
shapes = (
{
closed = 1;
nodes = (
(245,379,cs),
(242,373,o),
(239,346,o),
(236,320,cs),
(233,294,o),
(222,251,o),
(212,225,cs),
(201,199,o),
(189,165,o),
(186,151,cs),
(179,119,o),
(118,61,o),
(82,54,cs),
(12,38,o),
(16,116,o),
(91,265,cs),
(134,351,o),
(100,399,o),
(50,320,cs),
(-97,82,o),
(3,-106,o),
(179,79,cs),
(203,105,o),
(207,107,o),
(231,98,cs),
(279,82,o),
(401,165,o),
(372,194,cs),
(366,199,o),
(355,193,o),
(338,171,cs),
(295,119,o),
(221,93,o),
(241,137,cs),
(246,148,o),
(253,157,o),
(256,157,cs),
(272,157,o),
(306,264,o),
(306,314,cs),
(306,369,o),
(257,419,o)
);
}
);
width = 364;
}
);
unicode = 118;
},
{
glyphname = w;
lastChange = "2026-03-12 18:46:28 +0000";
layers = (
{
layerId = m01;
width = 600;
},
{
anchors = (
{
name = bottom;
pos = (273,0);
},
{
name = top;
pos = (273,320);
}
);
layerId = "00CACD6B-0B58-4977-961D-D953D4B3986F";
shapes = (
{
closed = 1;
nodes = (
(447,358,c),
(430,285,l),
(425,263,o),
(413,228,o),
(405,209,cs),
(397,189,o),
(391,174,o),
(393,174,cs),
(421,174,o),
(322,62,o),
(287,54,cs),
(217,36,o),
(217,87,o),
(290,238,c),
(338,340,l),
(303,337,l),
(269,335,l),
(230,256,l),
(208,213,o),
(187,174,o),
(183,169,cs),
(179,163,o),
(176,157,o),
(179,156,cs),
(180,153,o),
(160,131,o),
(133,105,cs),
(63,38,o),
(21,44,o),
(38,118,cs),
(45,154,o),
(107,293,o),
(117,296,cs),
(121,298,o),
(122,302,o),
(120,306,cs),
(117,309,o),
(122,317,o),
(128,322,cs),
(149,339,o),
(142,343,o),
(103,341,cs),
(62,337,o),
(36,299,o),
(-13,167,cs),
(-69,21,o),
(42,-49,o),
(139,71,cs),
(167,107,o),
(174,107,o),
(174,70,cs),
(174,-7,o),
(284,-7,o),
(369,71,cs),
(392,92,o),
(407,99,o),
(427,99,cs),
(478,99,o),
(554,152,o),
(554,187,cs),
(554,205,o),
(546,201,o),
(513,165,cs),
(494,145,o),
(474,130,o),
(456,127,c),
(429,122,l),
(446,150,l),
(498,240,o),
(512,389,o),
(467,389,cs),
(460,389,o),
(451,375,o)
);
}
);
width = 546;
}
);
unicode = 119;
},
{
glyphname = x;
lastChange = "2026-03-12 18:46:28 +0000";
layers = (
{
layerId = m01;
width = 600;
},
{
anchors = (
{
name = bottom;
pos = (202,0);
},
{
name = top;
pos = (202,320);
}
);
layerId = "00CACD6B-0B58-4977-961D-D953D4B3986F";
shapes = (
{
closed = 1;
nodes = (
(270,310,cs),
(222,266,o),
(182,234,o),
(179,237,cs),
(178,241,o),
(171,261,o),
(165,284,cs),
(154,327,o),
(148,332,o),
(112,337,cs),
(80,340,o),
(63,322,o),
(21,248,cs),
(-2,203,o),
(-11,150,o),
(11,174,cs),
(21,186,o),
(83,294,o),
(83,301,cs),
(84,324,o),
(98,270,o),
(103,222,c),
(109,168,l),
(26,103,l),
(-52,41,o),
(-82,0,o),
(-49,0,cs),
(-40,0,o),
(50,70,o),
(96,112,cs),
(124,137,o),
(122,138,o),
(136,102,cs),
(177,6,o),
(260,-13,o),
(334,56,cs),
(377,97,o),
(423,175,o),
(412,188,cs),
(403,198,o),
(398,194,o),
(384,164,cs),
(313,27,o),
(233,19,o),
(196,147,c),
(183,190,l),
(247,242,l),
(282,271,o),
(330,309,o),
(354,327,cs),
(398,361,o),
(406,375,o),
(384,384,cs),
(361,392,o),
(360,391,o)
);
}
);
width = 405;
}
);
unicode = 120;
},
{
glyphname = y;
lastChange = "2026-03-12 18:46:28 +0000";
layers = (
{
layerId = m01;
width = 600;
},
{
anchors = (
{
name = bottom;
pos = (186,0);
},
{
name = top;
pos = (186,320);
}
);
layerId = "00CACD6B-0B58-4977-961D-D953D4B3986F";
shapes = (
{
closed = 1;
nodes = (
(64,322,cs),
(59,309,o),
(52,298,o),
(49,298,cs),
(38,298,o),
(-17,165,o),
(-21,127,cs),
(-32,38,o),
(45,8,o),
(111,77,cs),
(169,137,o),
(179,143,o),
(158,102,cs),
(149,83,o),
(132,46,o),
(123,19,c),
(98,-47,l),
(92,-64,l),
(31,-48,l),
(-174,8,o),
(-358,-109,o),
(-267,-236,cs),
(-231,-287,o),
(-60,-320,o),
(-23,-283,cs),
(-18,-278,o),
(-7,-273,o),
(0,-273,cs),
(21,-273,o),
(88,-206,o),
(118,-156,c),
(145,-111,l),
(186,-121,l),
(305,-154,o),
(379,-164,o),
(393,-149,cs),
(417,-122,o),
(407,-116,o),
(341,-114,cs),
(265,-113,o),
(274,-114,o),
(208,-95,cs),
(151,-78,o),
(152,-79,o),
(179,-16,cs),
(188,3,o),
(202,18,o),
(226,28,cs),
(274,51,o),
(380,159,o),
(380,186,cs),
(380,208,o),
(368,200,o),
(341,162,cs),
(317,127,o),
(227,50,o),
(212,50,cs),
(201,50,o),
(213,80,o),
(277,213,cs),
(341,347,o),
(341,347,o),
(301,347,cs),
(274,347,o),
(272,344,o),
(234,271,cs),
(212,229,o),
(181,179,o),
(164,160,cs),
(146,141,o),
(132,122,o),
(132,117,cs),
(132,112,o),
(128,108,o),
(123,108,cs),
(118,108,o),
(105,100,o),
(93,91,cs),
(50,58,o),
(26,77,o),
(41,132,cs),
(52,175,o),
(69,220,o),
(80,232,cs),
(85,239,o),
(92,252,o),
(94,263,cs),
(98,273,o),
(104,281,o),
(108,281,cs),
(112,281,o),
(116,285,o),
(116,290,cs),
(116,295,o),
(122,304,o),
(128,311,cs),
(151,334,o),
(143,347,o),
(107,347,cs),
(77,347,o),
(72,345,o)
);
},
{
closed = 1;
nodes = (
(25,-72,cs),
(85,-90,o),
(86,-94,o),
(35,-169,cs),
(-56,-304,o),
(-251,-297,o),
(-229,-159,cs),
(-215,-77,o),
(-98,-36,o)
);
}
);
width = 372;
}
);
unicode = 121;
},
{
glyphname = z;
lastChange = "2026-03-12 18:46:28 +0000";
layers = (
{
layerId = m01;
width = 600;
},
{
anchors = (
{
name = bottom;
pos = (169,0);
},
{
name = top;
pos = (169,320);
}
);
layerId = "00CACD6B-0B58-4977-961D-D953D4B3986F";
shapes = (
{
closed = 1;
nodes = (
(90,359,cs),
(62,344,o),
(29,295,o),
(12,242,cs),
(-12,167,o),
(2,164,o),
(40,237,cs),
(82,321,o),
(74,318,o),
(168,301,c),
(245,287,l),
(203,258,l),
(19,134,o),
(-89,36,o),
(-55,22,cs),
(-47,19,o),
(-34,30,o),
(-21,50,cs),
(9,93,o),
(21,96,o),
(55,69,cs),
(154,-10,o),
(212,-2,o),
(301,100,cs),
(337,142,o),
(361,187,o),
(352,196,cs),
(348,200,o),
(341,196,o),
(336,187,cs),
(264,70,o),
(212,46,o),
(122,92,cs),
(60,123,o),
(59,123,o),
(75,132,c),
(176,204,l),
(224,240,o),
(281,280,o),
(302,292,cs),
(345,320,o),
(343,331,o),
(294,331,cs),
(274,331,o),
(233,340,o),
(203,351,cs),
(142,375,o),
(122,375,o)
);
}
);
width = 339;
}
);
unicode = 122;
},
{
glyphname = zero;
lastChange = "2026-03-12 18:47:04 +0000";
layers = (
{
layerId = "00CACD6B-0B58-4977-961D-D953D4B3986F";
shapes = (
{
closed = 1;
nodes = (
(264,573,cs),
(-4,480,o),
(-125,27,o),
(107,-21,cs),
(305,-62,o),
(555,256,o),
(496,472,cs),
(471,562,o),
(364,608,o)
);
},
{
closed = 1;
nodes = (
(408,540,cs),
(470,478,o),
(431,258,o),
(334,127,cs),
(323,113,o),
(314,99,o),
(314,96,cs),
(314,84,o),
(258,41,o),
(220,21,cs),
(52,-64,o),
(-5,132,o),
(115,377,cs),
(192,532,o),
(336,613,o)
);
}
);
width = 512;
},
{
layerId = m01;
width = 600;
}
);
unicode = 48;
},
{
glyphname = one;
lastChange = "2026-03-12 18:47:04 +0000";
layers = (
{
layerId = "00CACD6B-0B58-4977-961D-D953D4B3986F";
shapes = (
{
closed = 1;
nodes = (
(258,558,cs),
(235,542,o),
(190,521,o),
(160,511,cs),
(90,489,o),
(88,487,o),
(100,461,cs),
(112,433,o),
(111,433,o),
(160,459,cs),
(183,470,o),
(202,478,o),
(205,475,cs),
(209,471,o),
(97,227,o),
(20,74,c),
(-24,-14,l),
(15,-10,l),
(64,-5,o),
(51,-23,o),
(145,178,c),
(278,461,l),
(332,577,l),
(340,595,o),
(295,584,o)
);
}
);
width = 306;
},
{
layerId = m01;
width = 600;
}
);
unicode = 49;
},
{
glyphname = two;
lastChange = "2026-03-12 18:47:04 +0000";
layers = (
{
layerId = "00CACD6B-0B58-4977-961D-D953D4B3986F";
shapes = (
{
closed = 1;
nodes = (
(223,580,cs),
(103,542,o),
(36,446,o),
(83,385,cs),
(102,361,o),
(173,356,o),
(179,377,cs),
(181,383,o),
(175,385,o),
(164,383,cs),
(110,373,o),
(95,458,o),
(142,505,cs),
(274,636,o),
(430,540,o),
(343,382,cs),
(301,304,o),
(37,83,o),
(-12,83,cs),
(-32,83,o),
(-141,40,o),
(-141,32,cs),
(-141,28,o),
(-146,25,o),
(-153,25,cs),
(-165,25,o),
(-184,-3,o),
(-177,-11,cs),
(-170,-17,o),
(-123,-4,o),
(-81,17,c),
(-43,36,l),
(36,6,l),
(169,-45,o),
(339,0,o),
(339,86,cs),
(339,99,o),
(338,99,o),
(326,87,cs),
(287,49,o),
(157,33,o),
(73,57,cs),
(26,70,o),
(28,75,o),
(83,103,cs),
(413,269,o),
(558,495,o),
(386,575,cs),
(335,599,o),
(287,600,o)
);
}
);
width = 463;
},
{
layerId = m01;
width = 600;
}
);
unicode = 50;
},
{
glyphname = three;
lastChange = "2026-03-12 18:47:04 +0000";
layers = (
{
layerId = "00CACD6B-0B58-4977-961D-D953D4B3986F";
shapes = (
{
closed = 1;
nodes = (
(242,575,cs),
(145,544,o),
(104,482,o),
(153,434,cs),
(180,406,o),
(248,407,o),
(248,435,cs),
(248,442,o),
(239,446,o),
(221,446,cs),
(189,446,o),
(174,459,o),
(174,484,cs),
(174,542,o),
(322,580,o),
(368,533,cs),
(436,466,o),
(312,314,o),
(188,314,cs),
(163,314,o),
(172,291,o),
(201,285,cs),
(381,246,o),
(292,23,o),
(91,10,cs),
(-7,4,o),
(-55,108,o),
(33,139,cs),
(60,149,o),
(63,155,o),
(49,174,cs),
(43,183,o),
(39,184,o),
(36,176,cs),
(34,170,o),
(27,168,o),
(21,170,cs),
(-29,189,o),
(-60,58,o),
(-16,16,cs),
(117,-108,o),
(448,70,o),
(369,222,cs),
(355,247,o),
(301,298,o),
(287,298,cs),
(281,298,o),
(303,311,o),
(334,327,cs),
(551,436,o),
(474,647,o)
);
}
);
width = 463;
},
{
layerId = m01;
width = 600;
}
);
unicode = 51;
},
{
glyphname = four;
lastChange = "2026-03-12 18:47:04 +0000";
layers = (
{
layerId = "00CACD6B-0B58-4977-961D-D953D4B3986F";
shapes = (
{
closed = 1;
nodes = (
(430,579,cs),
(412,576,o),
(388,562,o),
(368,544,cs),
(318,499,o),
(88,311,o),
(15,258,cs),
(-72,194,o),
(-71,194,o),
(68,191,cs),
(172,189,o),
(223,185,o),
(223,178,cs),
(223,175,o),
(157,22,o),
(149,8,cs),
(139,-11,o),
(146,-16,o),
(178,-16,cs),
(203,-16,o),
(205,-13,o),
(253,85,c),
(302,186,l),
(370,189,l),
(437,191,o),
(439,191,o),
(455,218,cs),
(481,260,o),
(457,262,o),
(336,226,cs),
(315,220,o),
(319,231,o),
(402,408,cs),
(486,586,o),
(486,588,o)
);
},
{
closed = 1;
nodes = (
(372,492,cs),
(372,489,o),
(351,446,o),
(326,397,cs),
(302,347,o),
(281,301,o),
(281,294,cs),
(281,287,o),
(278,281,o),
(274,281,cs),
(271,281,o),
(263,268,o),
(257,252,c),
(247,223,l),
(138,224,l),
(33,224,o),
(30,225,o),
(50,238,cs),
(90,266,o),
(276,418,o),
(317,456,cs),
(356,493,o),
(372,503,o)
);
}
);
width = 479;
},
{
layerId = m01;
width = 600;
}
);
unicode = 52;
},
{
glyphname = five;
lastChange = "2026-03-12 18:47:04 +0000";
layers = (
{
layerId = "00CACD6B-0B58-4977-961D-D953D4B3986F";
shapes = (
{
closed = 1;
nodes = (
(174,545,l),
(136,459,l),
(59,289,o),
(59,289,o),
(170,303,cs),
(345,322,o),
(302,75,o),
(120,13,cs),
(7,-25,o),
(-83,96,o),
(25,141,cs),
(55,153,o),
(55,176,o),
(26,180,cs),
(-39,189,o),
(-83,80,o),
(-36,26,cs),
(95,-131,o),
(437,115,o),
(343,298,cs),
(320,342,o),
(201,364,o),
(137,335,cs),
(123,329,o),
(122,331,o),
(127,350,cs),
(134,377,o),
(204,529,o),
(210,529,cs),
(212,529,o),
(231,521,o),
(250,511,cs),
(322,473,o),
(414,494,o),
(447,555,cs),
(460,579,o),
(452,582,o),
(417,570,cs),
(388,561,o),
(375,561,o),
(238,575,c),
(190,580,l)
);
}
);
width = 413;
},
{
layerId = m01;
width = 600;
}
);
unicode = 53;
},
{
glyphname = six;
lastChange = "2026-03-12 18:47:04 +0000";
layers = (
{
layerId = "00CACD6B-0B58-4977-961D-D953D4B3986F";
shapes = (
{
closed = 1;
nodes = (
(373,582,cs),
(81,504,o),
(-131,155,o),
(27,10,cs),
(136,-91,o),
(380,70,o),
(380,243,cs),
(380,365,o),
(239,394,o),
(107,300,c),
(87,285,l),
(105,314,l),
(189,449,o),
(298,533,o),
(438,576,cs),
(449,580,o),
(449,580,o),
(438,587,cs),
(423,597,o),
(427,597,o)
);
},
{
closed = 1;
nodes = (
(286,299,cs),
(308,283,o),
(312,244,o),
(297,175,cs),
(260,-2,o),
(35,-60,o),
(39,108,cs),
(43,256,o),
(189,370,o)
);
}
);
width = 438;
},
{
layerId = m01;
width = 600;
}
);
unicode = 54;
},
{
glyphname = seven;
lastChange = "2026-03-12 18:47:04 +0000";
layers = (
{
layerId = "00CACD6B-0B58-4977-961D-D953D4B3986F";
shapes = (
{
closed = 1;
nodes = (
(147,577,cs),
(63,536,o),
(31,456,o),
(114,494,cs),
(156,513,o),
(174,517,o),
(281,521,cs),
(347,523,o),
(406,528,o),
(412,532,cs),
(441,551,o),
(416,520,o),
(383,495,cs),
(331,459,o),
(207,341,o),
(150,272,cs),
(-9,84,o),
(-54,-8,o),
(15,-8,c),
(55,-8,l),
(91,68,l),
(125,138,o),
(209,274,o),
(240,307,c),
(314,388,l),
(348,425,o),
(396,471,o),
(422,490,cs),
(446,509,o),
(469,528,o),
(472,532,cs),
(475,536,o),
(486,543,o),
(497,549,cs),
(524,562,o),
(528,587,o),
(503,587,cs),
(492,587,o),
(475,581,o),
(466,575,cs),
(446,559,o),
(375,559,o),
(330,575,cs),
(265,599,o),
(192,599,o)
);
}
);
width = 364;
},
{
layerId = m01;
width = 600;
}
);
unicode = 55;
},
{
glyphname = eight;
lastChange = "2026-03-12 18:47:04 +0000";
layers = (
{
layerId = "00CACD6B-0B58-4977-961D-D953D4B3986F";
shapes = (
{
closed = 1;
nodes = (
(281,587,cs),
(149,561,o),
(82,436,o),
(152,344,c),
(174,316,l),
(146,310,l),
(-21,274,o),
(-122,113,o),
(-33,25,cs),
(-15,7,o),
(2,-8,o),
(3,-8,c),
(50,-16,l),
(261,-57,o),
(451,147,o),
(326,281,cs),
(281,329,o),
(281,327,o),
(326,339,cs),
(525,394,o),
(482,627,o)
);
},
{
closed = 1;
nodes = (
(366,551,cs),
(424,497,o),
(393,403,o),
(301,359,c),
(255,337,l),
(234,356,l),
(203,385,o),
(188,426,o),
(194,465,cs),
(208,547,o),
(313,600,o)
);
},
{
closed = 1;
nodes = (
(250,253,cs),
(339,145,o),
(265,8,o),
(118,8,cs),
(-41,8,o),
(-28,218,o),
(136,281,cs),
(200,305,o),
(209,303,o)
);
}
);
width = 455;
},
{
layerId = m01;
width = 600;
}
);
unicode = 56;
},
{
glyphname = nine;
lastChange = "2026-03-12 18:47:04 +0000";
layers = (
{
layerId = "00CACD6B-0B58-4977-961D-D953D4B3986F";
shapes = (
{
closed = 1;
nodes = (
(250,579,cs),
(217,571,o),
(165,545,o),
(165,536,cs),
(165,532,o),
(160,529,o),
(154,529,cs),
(136,529,o),
(75,458,o),
(53,411,cs),
(20,340,o),
(34,248,o),
(79,248,cs),
(84,248,o),
(91,243,o),
(93,238,cs),
(102,211,o),
(281,237,o),
(281,266,cs),
(281,272,o),
(324,298,o),
(335,298,cs),
(364,298,o),
(234,137,o),
(172,94,c),
(132,66,l),
(129,62,o),
(111,54,o),
(45,25,cs),
(36,21,o),
(17,15,o),
(2,13,cs),
(-41,3,o),
(-34,-20,o),
(10,-12,cs),
(275,33,o),
(495,289,o),
(439,486,cs),
(431,514,o),
(378,574,o),
(369,565,cs),
(366,562,o),
(364,564,o),
(364,570,cs),
(364,575,o),
(360,578,o),
(356,575,cs),
(352,572,o),
(346,574,o),
(343,579,cs),
(337,589,o),
(290,589,o)
);
},
{
closed = 1;
nodes = (
(353,554,l),
(384,554,o),
(388,417,o),
(360,359,cs),
(316,270,o),
(160,225,o),
(122,289,cs),
(62,389,o),
(215,591,o),
(326,561,c)
);
}
);
width = 455;
},
{
layerId = m01;
width = 600;
}
);
unicode = 57;
},
{
glyphname = period;
lastChange = "2026-03-12 18:47:04 +0000";
layers = (
{
layerId = "00CACD6B-0B58-4977-961D-D953D4B3986F";
shapes = (
{
closed = 1;
nodes = (
(28,94,cs),
(-13,49,o),
(-5,8,o),
(45,8,cs),
(88,8,o),
(127,45,o),
(121,78,cs),
(112,122,o),
(63,131,o)
);
}
);
width = 306;
},
{
layerId = m01;
width = 600;
}
);
unicode = 46;
},
{
glyphname = comma;
lastChange = "2026-03-12 18:47:04 +0000";
layers = (
{
layerId = "00CACD6B-0B58-4977-961D-D953D4B3986F";
shapes = (
{
closed = 1;
nodes = (
(75,117,cs),
(60,113,o),
(50,98,o),
(32,55,cs),
(20,23,o),
(-1,-12,o),
(-12,-25,cs),
(-41,-54,o),
(-27,-64,o),
(18,-43,cs),
(126,5,o),
(176,146,o)
);
}
);
width = 273;
},
{
layerId = m01;
width = 600;
}
);
unicode = 44;
},
{
glyphname = colon;
lastChange = "2026-03-12 18:47:04 +0000";
layers = (
{
layerId = "00CACD6B-0B58-4977-961D-D953D4B3986F";
shapes = (
{
closed = 1;
nodes = (
(28,94,cs),
(-13,49,o),
(-5,8,o),
(45,8,cs),
(88,8,o),
(127,45,o),
(121,78,cs),
(112,122,o),
(63,131,o)
);
},
{
closed = 1;
nodes = (
(28,283,cs),
(-13,238,o),
(-5,197,o),
(45,197,cs),
(88,197,o),
(127,234,o),
(121,267,cs),
(112,311,o),
(63,320,o)
);
}
);
width = 306;
},
{
layerId = m01;
width = 600;
}
);
unicode = 58;
},
{
glyphname = semicolon;
lastChange = "2026-03-12 18:47:04 +0000";
layers = (
{
layerId = "00CACD6B-0B58-4977-961D-D953D4B3986F";
shapes = (
{
closed = 1;
nodes = (
(75,117,cs),
(60,113,o),
(50,98,o),
(32,55,cs),
(20,23,o),
(-1,-12,o),
(-12,-25,cs),
(-41,-54,o),
(-27,-64,o),
(18,-43,cs),
(126,5,o),
(176,146,o)
);
},
{
closed = 1;
nodes = (
(28,283,cs),
(-13,238,o),
(-5,197,o),
(45,197,cs),
(88,197,o),
(127,234,o),
(121,267,cs),
(112,311,o),
(63,320,o)
);
}
);
width = 273;
},
{
layerId = m01;
width = 600;
}
);
unicode = 59;
},
{
glyphname = exclam;
lastChange = "2026-03-12 18:47:04 +0000";
layers = (
{
layerId = "00CACD6B-0B58-4977-961D-D953D4B3986F";
shapes = (
{
closed = 1;
nodes = (
(365,653,cs),
(329,645,o),
(89,213,o),
(110,194,cs),
(121,182,o),
(144,202,o),
(166,243,cs),
(189,284,o),
(242,363,o),
(357,523,cs),
(450,653,o),
(451,674,o)
);
},
{
closed = 1;
nodes = (
(28,94,cs),
(-13,49,o),
(-5,8,o),
(45,8,cs),
(88,8,o),
(127,45,o),
(121,78,cs),
(112,122,o),
(63,131,o)
);
}
);
width = 306;
},
{
layerId = m01;
width = 600;
}
);
unicode = 33;
},
{
glyphname = exclamdown;
lastChange = "2026-03-12 18:47:04 +0000";
layers = (
{
layerId = "00CACD6B-0B58-4977-961D-D953D4B3986F";
shapes = (
{
closed = 1;
nodes = (
(73,29,cs),
(109,37,o),
(349,469,o),
(328,488,cs),
(317,500,o),
(294,480,o),
(272,439,cs),
(249,398,o),
(196,319,o),
(81,159,cs),
(-12,29,o),
(-13,8,o)
);
},
{
closed = 1;
nodes = (
(410,588,cs),
(451,633,o),
(443,674,o),
(393,674,cs),
(350,674,o),
(311,637,o),
(317,604,cs),
(326,560,o),
(375,551,o)
);
}
);
width = 306;
},
{
layerId = m01;
width = 600;
}
);
unicode = 161;
},
{
glyphname = question;
lastChange = "2026-03-12 18:47:04 +0000";
layers = (
{
layerId = "00CACD6B-0B58-4977-961D-D953D4B3986F";
shapes = (
{
closed = 1;
nodes = (
(317,678,cs),
(255,665,o),
(192,623,o),
(169,578,cs),
(136,514,o),
(176,445,o),
(236,460,cs),
(260,465,o),
(249,488,o),
(222,488,cs),
(142,488,o),
(203,618,o),
(298,649,cs),
(503,718,o),
(522,532,o),
(324,383,cs),
(191,283,o),
(117,199,o),
(152,185,cs),
(174,177,o),
(188,188,o),
(206,222,cs),
(228,265,o),
(269,295,o),
(458,407,cs),
(633,510,o),
(523,722,o)
);
},
{
closed = 1;
nodes = (
(71,90,cs),
(22,32,o),
(64,-15,o),
(132,21,cs),
(164,37,o),
(176,60,o),
(166,85,cs),
(151,124,o),
(102,127,o)
);
}
);
width = 463;
},
{
layerId = m01;
width = 600;
}
);
unicode = 63;
},
{
glyphname = questiondown;
lastChange = "2026-03-12 18:47:04 +0000";
layers = (
{
layerId = "00CACD6B-0B58-4977-961D-D953D4B3986F";
shapes = (
{
closed = 1;
nodes = (
(338,29,cs),
(400,42,o),
(463,84,o),
(486,129,cs),
(519,193,o),
(479,262,o),
(419,247,cs),
(395,242,o),
(406,219,o),
(433,219,cs),
(513,219,o),
(452,89,o),
(357,58,cs),
(152,-11,o),
(133,175,o),
(331,324,cs),
(464,424,o),
(538,508,o),
(503,522,cs),
(481,530,o),
(467,519,o),
(449,485,cs),
(427,442,o),
(386,412,o),
(197,300,cs),
(22,197,o),
(132,-15,o)
);
},
{
closed = 1;
nodes = (
(584,617,cs),
(633,675,o),
(591,722,o),
(523,686,cs),
(491,670,o),
(479,647,o),
(489,622,cs),
(504,583,o),
(553,580,o)
);
}
);
width = 463;
},
{
layerId = m01;
width = 600;
}
);
unicode = 191;
},
{
glyphname = asterisk;
lastChange = "2026-03-12 18:47:04 +0000";
layers = (
{
layerId = "00CACD6B-0B58-4977-961D-D953D4B3986F";
shapes = (
{
closed = 1;
nodes = (
(264,575,cs),
(264,568,o),
(273,548,o),
(284,531,cs),
(335,447,o),
(328,432,o),
(260,476,c),
(213,506,l),
(189,480,l),
(154,441,o),
(171,430,o),
(274,430,cs),
(317,430,o),
(315,424,o),
(256,369,c),
(207,322,l),
(229,292,l),
(255,259,o),
(255,259,o),
(299,337,cs),
(328,387,o),
(333,386,o),
(360,326,c),
(379,282,l),
(407,295,l),
(437,311,l),
(439,313,o),
(423,332,o),
(403,355,cs),
(345,417,o),
(349,430,o),
(424,427,c),
(484,426,l),
(486,450,l),
(489,473,l),
(435,467,l),
(369,461,o),
(369,464,o),
(422,516,c),
(464,556,l),
(446,574,l),
(429,591,l),
(411,570,l),
(373,525,l),
(355,502,o),
(353,501,o),
(344,516,cs),
(312,568,o),
(299,583,o),
(283,585,cs),
(270,587,o),
(264,584,o)
);
}
);
width = 471;
},
{
layerId = m01;
width = 600;
}
);
unicode = 42;
},
{
glyphname = numbersign;
lastChange = "2026-03-12 18:47:04 +0000";
layers = (
{
layerId = "00CACD6B-0B58-4977-961D-D953D4B3986F";
shapes = (
{
closed = 1;
nodes = (
(292,561,cs),
(287,555,o),
(269,523,o),
(251,490,c),
(219,430,l),
(156,430,l),
(98,430,o),
(92,428,o),
(80,410,cs),
(62,384,o),
(68,380,o),
(134,380,cs),
(166,380,o),
(190,378,o),
(188,374,c),
(141,283,l),
(96,199,l),
(39,199,l),
(-12,199,o),
(-17,197,o),
(-24,180,cs),
(-35,153,o),
(-29,149,o),
(21,149,c),
(66,149,l),
(55,127,l),
(50,113,o),
(33,81,o),
(18,55,cs),
(-13,-2,o),
(-12,-2,o),
(30,5,cs),
(60,10,o),
(64,13,o),
(96,77,c),
(131,145,l),
(244,147,l),
(345,149,o),
(357,148,o),
(347,137,cs),
(341,130,o),
(339,124,o),
(342,124,cs),
(348,124,o),
(323,73,o),
(314,66,cs),
(309,62,o),
(281,9,o),
(281,3,cs),
(281,-40,o),
(350,8,o),
(386,75,c),
(426,149,l),
(482,149,l),
(534,149,o),
(538,151,o),
(546,170,cs),
(558,202,o),
(557,203,o),
(517,200,cs),
(455,195,o),
(450,200,o),
(479,246,cs),
(493,268,o),
(513,308,o),
(525,333,c),
(546,380,l),
(599,380,l),
(684,380,o),
(699,427,o),
(617,432,c),
(577,434,l),
(611,499,l),
(644,562,l),
(609,562,l),
(574,562,l),
(539,496,l),
(503,430,l),
(402,430,l),
(275,430,o),
(276,429,o),
(352,552,cs),
(366,573,o),
(308,581,o)
);
},
{
closed = 1;
nodes = (
(471,376,cs),
(471,375,o),
(450,334,o),
(425,286,c),
(379,199,l),
(282,199,l),
(228,199,o),
(183,201,o),
(179,203,cs),
(169,214,o),
(261,379,o),
(279,382,cs),
(296,385,o),
(471,380,o)
);
}
);
width = 587;
},
{
layerId = m01;
width = 600;
}
);
unicode = 35;
},
{
glyphname = hyphen;
lastChange = "2026-03-12 18:47:04 +0000";
layers = (
{
layerId = "00CACD6B-0B58-4977-961D-D953D4B3986F";
shapes = (
{
closed = 1;
nodes = (
(50,205,l),
(33,178,l),
(188,175,l),
(349,173,o),
(354,174,o),
(357,207,c),
(360,227,l),
(212,230,l),
(66,232,l)
);
}
);
width = 397;
},
{
layerId = m01;
width = 600;
}
);
unicode = 45;
},
{
glyphname = parenleft;
lastChange = "2026-03-12 18:47:04 +0000";
layers = (
{
layerId = "00CACD6B-0B58-4977-961D-D953D4B3986F";
shapes = (
{
closed = 1;
nodes = (
(433,643,cs),
(131,442,o),
(-6,70,o),
(149,-123,cs),
(172,-151,o),
(206,-171,o),
(197,-150,c),
(169,-96,l),
(78,89,o),
(257,508,o),
(484,642,cs),
(519,662,o),
(527,677,o),
(507,684,cs),
(502,685,o),
(469,667,o)
);
}
);
width = 322;
},
{
layerId = m01;
width = 600;
}
);
unicode = 40;
},
{
glyphname = parenright;
lastChange = "2026-03-12 18:47:04 +0000";
layers = (
{
layerId = "00CACD6B-0B58-4977-961D-D953D4B3986F";
shapes = (
{
closed = 1;
nodes = (
(88,-129,cs),
(390,72,o),
(527,444,o),
(372,637,cs),
(349,665,o),
(315,685,o),
(324,664,c),
(352,610,l),
(443,425,o),
(264,6,o),
(37,-128,cs),
(2,-148,o),
(-6,-163,o),
(14,-170,cs),
(19,-171,o),
(52,-153,o)
);
}
);
width = 322;
},
{
layerId = m01;
width = 600;
}
);
unicode = 41;
},
{
glyphname = braceleft;
lastChange = "2026-03-12 18:47:04 +0000";
layers = (
{
layerId = "00CACD6B-0B58-4977-961D-D953D4B3986F";
shapes = (
{
closed = 1;
nodes = (
(407,649,cs),
(336,608,o),
(289,551,o),
(231,432,cs),
(180,330,o),
(160,306,o),
(109,284,c),
(82,274,l),
(116,240,l),
(155,200,o),
(156,194,o),
(125,132,cs),
(58,1,o),
(58,-87,o),
(124,-136,cs),
(175,-174,o),
(198,-163,o),
(152,-122,cs),
(112,-87,o),
(115,-42,o),
(164,60,cs),
(214,164,o),
(216,202,o),
(170,239,cs),
(150,256,o),
(155,268,o),
(189,282,cs),
(227,299,o),
(245,324,o),
(316,465,cs),
(367,569,o),
(422,639,o),
(459,648,cs),
(479,653,o),
(488,678,o),
(469,678,cs),
(464,678,o),
(436,665,o)
);
}
);
width = 372;
},
{
layerId = m01;
width = 600;
}
);
unicode = 123;
},
{
glyphname = braceright;
lastChange = "2026-03-12 18:47:04 +0000";
layers = (
{
layerId = "00CACD6B-0B58-4977-961D-D953D4B3986F";
shapes = (
{
closed = 1;
nodes = (
(139,-145,cs),
(210,-104,o),
(257,-47,o),
(315,72,cs),
(366,174,o),
(386,198,o),
(437,220,c),
(464,230,l),
(430,264,l),
(391,304,o),
(390,310,o),
(421,372,cs),
(488,503,o),
(488,591,o),
(422,640,cs),
(371,678,o),
(348,667,o),
(394,626,cs),
(434,591,o),
(431,546,o),
(382,444,cs),
(332,340,o),
(330,302,o),
(376,265,cs),
(396,248,o),
(391,236,o),
(357,222,cs),
(319,205,o),
(301,180,o),
(230,39,cs),
(179,-65,o),
(124,-135,o),
(87,-144,cs),
(67,-149,o),
(58,-174,o),
(77,-174,cs),
(82,-174,o),
(110,-161,o)
);
}
);
width = 372;
},
{
layerId = m01;
width = 600;
}
);
unicode = 125;
},
{
glyphname = quotedblleft;
lastChange = "2026-03-12 18:47:04 +0000";
layers = (
{
layerId = "00CACD6B-0B58-4977-961D-D953D4B3986F";
shapes = (
{
closed = 1;
nodes = (
(87,465,cs),
(102,469,o),
(112,484,o),
(130,527,cs),
(142,559,o),
(163,594,o),
(174,607,cs),
(203,636,o),
(189,646,o),
(144,625,cs),
(36,577,o),
(-14,436,o)
);
},
{
closed = 1;
nodes = (
(264,465,cs),
(279,469,o),
(289,484,o),
(307,527,cs),
(319,559,o),
(340,594,o),
(351,607,cs),
(380,636,o),
(366,646,o),
(321,625,cs),
(213,577,o),
(163,436,o)
);
}
);
width = 256;
},
{
layerId = m01;
width = 600;
}
);
unicode = 8220;
},
{
glyphname = quotedblright;
lastChange = "2026-03-12 18:47:04 +0000";
layers = (
{
layerId = "00CACD6B-0B58-4977-961D-D953D4B3986F";
shapes = (
{
closed = 1;
nodes = (
(102,617,cs),
(87,613,o),
(77,598,o),
(59,555,cs),
(47,523,o),
(26,488,o),
(15,475,cs),
(-14,446,o),
(0,436,o),
(45,457,cs),
(153,505,o),
(203,646,o)
);
},
{
closed = 1;
nodes = (
(279,617,cs),
(264,613,o),
(254,598,o),
(236,555,cs),
(224,523,o),
(203,488,o),
(192,475,cs),
(163,446,o),
(177,436,o),
(222,457,cs),
(330,505,o),
(380,646,o)
);
}
);
width = 256;
},
{
layerId = m01;
width = 600;
}
);
unicode = 8221;
},
{
glyphname = quoteleft;
lastChange = "2026-03-12 18:47:04 +0000";
layers = (
{
layerId = "00CACD6B-0B58-4977-961D-D953D4B3986F";
shapes = (
{
closed = 1;
nodes = (
(87,465,cs),
(102,469,o),
(112,484,o),
(130,527,cs),
(142,559,o),
(163,594,o),
(174,607,cs),
(203,636,o),
(189,646,o),
(144,625,cs),
(36,577,o),
(-14,436,o)
);
}
);
width = 267;
},
{
layerId = m01;
width = 600;
}
);
unicode = 8216;
},
{
glyphname = quotedbl;
lastChange = "2026-03-12 18:47:04 +0000";
layers = (
{
layerId = "00CACD6B-0B58-4977-961D-D953D4B3986F";
shapes = (
{
closed = 1;
nodes = (
(160,589,cs),
(155,585,o),
(139,554,o),
(124,519,cs),
(106,475,o),
(86,443,o),
(60,418,cs),
(-14,345,o),
(59,367,o),
(140,442,cs),
(231,528,o),
(248,646,o)
);
},
{
closed = 1;
nodes = (
(273,523,l),
(253,479,o),
(232,447,o),
(205,421,cs),
(162,380,o),
(161,369,o),
(201,382,cs),
(267,404,o),
(334,475,o),
(368,556,c),
(380,587,l),
(341,587,l),
(301,587,l)
);
}
);
width = 256;
},
{
layerId = m01;
width = 600;
}
);
unicode = 34;
},
{
glyphname = quotesingle;
lastChange = "2026-03-12 18:47:04 +0000";
layers = (
{
layerId = "00CACD6B-0B58-4977-961D-D953D4B3986F";
shapes = (
{
closed = 1;
nodes = (
(102,617,cs),
(87,613,o),
(77,598,o),
(59,555,cs),
(47,523,o),
(26,488,o),
(15,475,cs),
(-14,446,o),
(0,436,o),
(45,457,cs),
(153,505,o),
(203,646,o)
);
}
);
width = 267;
},
{
layerId = m01;
width = 600;
}
);
unicode = 39;
},
{
glyphname = at;
lastChange = "2026-03-12 18:47:04 +0000";
layers = (
{
layerId = "00CACD6B-0B58-4977-961D-D953D4B3986F";
shapes = (
{
closed = 1;
nodes = (
(322,471,cs),
(93,423,o),
(-69,155,o),
(20,-28,cs),
(72,-135,o),
(229,-173,o),
(360,-111,cs),
(419,-83,o),
(388,-73,o),
(326,-100,cs),
(-7,-247,o),
(-52,263,o),
(279,423,cs),
(523,542,o),
(699,280,o),
(502,93,cs),
(398,-5,o),
(374,72,o),
(457,242,cs),
(512,356,o),
(512,356,o),
(477,356,cs),
(455,356,o),
(447,351,o),
(440,336,c),
(431,316,l),
(399,332,l),
(297,381,o),
(123,237,o),
(121,102,cs),
(120,-6,o),
(194,-7,o),
(301,101,c),
(339,140,l),
(339,95,l),
(339,-59,o),
(557,28,o),
(616,206,cs),
(670,373,o),
(517,512,o)
);
},
{
closed = 1;
nodes = (
(407,309,cs),
(429,301,o),
(352,181,o),
(283,115,cs),
(207,42,o),
(185,40,o),
(187,104,cs),
(190,218,o),
(322,342,o)
);
}
);
width = 703;
},
{
layerId = m01;
width = 600;
}
);
unicode = 64;
},
{
glyphname = ampersand;
lastChange = "2026-03-12 18:47:04 +0000";
layers = (
{
layerId = "00CACD6B-0B58-4977-961D-D953D4B3986F";
shapes = (
{
closed = 1;
nodes = (
(343,607,cs),
(273,569,o),
(238,508,o),
(236,419,c),
(236,366,l),
(178,337,l),
(35,262,o),
(-35,155,o),
(17,88,cs),
(34,66,o),
(83,36,o),
(83,46,cs),
(83,50,o),
(88,46,o),
(97,41,cs),
(122,20,o),
(280,28,o),
(343,53,cs),
(366,63,o),
(370,61,o),
(414,27,cs),
(465,-12,o),
(513,-25,o),
(545,-9,cs),
(570,5,o),
(566,13,o),
(525,29,cs),
(504,37,o),
(474,56,o),
(457,71,c),
(426,100,l),
(450,116,l),
(536,172,o),
(592,318,o),
(546,364,cs),
(512,398,o),
(498,386,o),
(494,321,cs),
(489,244,o),
(436,141,o),
(402,141,cs),
(384,141,o),
(306,313,o),
(306,351,cs),
(306,357,o),
(318,367,o),
(334,372,cs),
(463,414,o),
(545,537,o),
(484,595,cs),
(456,621,o),
(380,627,o)
);
},
{
closed = 1;
nodes = (
(428,577,cs),
(468,545,o),
(412,452,o),
(326,403,cs),
(295,386,o),
(289,390,o),
(289,429,cs),
(290,549,o),
(364,627,o)
);
},
{
closed = 1;
nodes = (
(248,288,cs),
(259,241,o),
(297,161,o),
(324,123,cs),
(371,60,o),
(181,30,o),
(117,90,cs),
(56,146,o),
(98,261,o),
(198,314,cs),
(238,336,o),
(236,337,o)
);
}
);
width = 645;
},
{
layerId = m01;
width = 600;
}
);
unicode = 38;
},
{
glyphname = dollar;
lastChange = "2026-03-12 18:47:04 +0000";
layers = (
{
layerId = "00CACD6B-0B58-4977-961D-D953D4B3986F";
shapes = (
{
closed = 1;
nodes = (
(497,682,cs),
(483,657,o),
(471,633,o),
(471,628,cs),
(471,624,o),
(460,620,o),
(448,620,cs),
(279,620,o),
(179,439,o),
(275,304,cs),
(283,293,o),
(283,286,o),
(274,271,c),
(229,190,l),
(137,15,o),
(138,16,o),
(102,38,cs),
(37,82,o),
(43,191,o),
(112,220,cs),
(148,235,o),
(150,252,o),
(116,245,cs),
(66,236,o),
(13,177,o),
(8,128,cs),
(2,71,o),
(22,37,o),
(91,-9,c),
(110,-22,l),
(84,-68,l),
(51,-125,o),
(51,-132,o),
(85,-132,cs),
(110,-132,o),
(113,-128,o),
(136,-79,c),
(161,-26,l),
(208,-21,l),
(365,-6,o),
(450,141,o),
(380,278,cs),
(348,341,o),
(348,341,o),
(398,418,cs),
(420,454,o),
(450,505,o),
(465,532,cs),
(493,584,o),
(512,592,o),
(534,558,cs),
(562,514,o),
(540,462,o),
(482,437,cs),
(445,422,o),
(437,410,o),
(460,402,cs),
(479,394,o),
(538,430,o),
(560,462,cs),
(591,509,o),
(577,587,o),
(537,587,cs),
(521,587,o),
(529,628,o),
(554,670,cs),
(585,723,o),
(585,727,o),
(550,727,cs),
(525,727,o),
(520,723,o)
);
},
{
closed = 1;
nodes = (
(436,580,cs),
(427,556,o),
(334,389,o),
(330,389,cs),
(310,388,o),
(310,484,o),
(329,521,cs),
(348,556,o),
(449,612,o)
);
},
{
closed = 1;
nodes = (
(328,158,cs),
(336,89,o),
(285,21,o),
(219,15,cs),
(183,12,o),
(184,13,o),
(245,134,c),
(299,243,l),
(312,221,l),
(318,208,o),
(326,180,o)
);
}
);
width = 521;
},
{
layerId = m01;
width = 600;
}
);
unicode = 36;
},
{
glyphname = euro;
lastChange = "2026-03-12 18:47:04 +0000";
layers = (
{
layerId = "00CACD6B-0B58-4977-961D-D953D4B3986F";
shapes = (
{
closed = 1;
nodes = (
(504,705,cs),
(394,685,o),
(219,550,o),
(171,449,cs),
(164,432,o),
(156,430,o),
(107,430,cs),
(54,430,o),
(33,422,o),
(33,399,cs),
(33,392,o),
(47,389,o),
(83,389,cs),
(139,389,o),
(140,386,o),
(117,333,c),
(103,298,l),
(44,298,l),
(-7,298,o),
(-17,295,o),
(-28,280,cs),
(-47,253,o),
(-38,248,o),
(31,248,c),
(93,248,l),
(88,209,l),
(64,22,o),
(317,-117,o),
(397,39,cs),
(403,51,o),
(412,65,o),
(416,67,cs),
(420,70,o),
(422,81,o),
(420,92,cs),
(418,108,o),
(416,109,o),
(407,99,cs),
(287,-53,o),
(168,-12,o),
(175,178,c),
(178,244,l),
(250,248,l),
(327,252,o),
(327,253,o),
(332,277,cs),
(335,292,o),
(329,294,o),
(264,298,c),
(192,302,l),
(212,346,l),
(231,389,l),
(317,389,l),
(400,389,o),
(403,389,o),
(417,409,c),
(430,430,l),
(343,430,l),
(295,430,o),
(256,432,o),
(256,434,cs),
(256,496,o),
(446,658,o),
(541,678,cs),
(683,707,o),
(655,542,o),
(511,494,cs),
(472,481,o),
(460,463,o),
(489,463,cs),
(550,463,o),
(655,550,o),
(665,610,cs),
(679,689,o),
(615,726,o)
);
}
);
width = 512;
},
{
layerId = m01;
width = 600;
}
);
unicode = 8364;
},
{
glyphname = sterling;
lastChange = "2026-03-12 18:47:04 +0000";
layers = (
{
layerId = "00CACD6B-0B58-4977-961D-D953D4B3986F";
shapes = (
{
closed = 1;
nodes = (
(661,695,cs),
(604,677,o),
(533,618,o),
(507,567,cs),
(499,554,o),
(489,537,o),
(484,532,cs),
(478,527,o),
(451,479,o),
(425,427,c),
(377,331,l),
(318,331,l),
(263,331,o),
(258,329,o),
(249,309,cs),
(235,279,o),
(243,273,o),
(303,273,cs),
(331,273,o),
(355,271,o),
(355,268,cs),
(355,259,o),
(299,159,o),
(274,124,cs),
(222,51,o),
(227,54,o),
(171,56,cs),
(131,58,o),
(114,55,o),
(93,41,cs),
(20,-3,o),
(108,-38,o),
(198,1,c),
(237,18,l),
(310,-24,l),
(465,-112,o),
(562,-115,o),
(632,-31,cs),
(681,26,o),
(693,84,o),
(647,37,cs),
(579,-31,o),
(421,-34,o),
(294,31,c),
(271,43,l),
(308,81,l),
(347,122,o),
(403,203,o),
(422,247,c),
(431,273,l),
(517,273,l),
(602,273,l),
(611,298,l),
(622,331,o),
(613,334,o),
(529,329,cs),
(455,325,o),
(456,322,o),
(483,384,cs),
(550,537,o),
(634,656,o),
(684,669,cs),
(797,700,o),
(822,546,o),
(716,470,cs),
(664,434,o),
(659,429,o),
(668,420,cs),
(700,388,o),
(817,518,o),
(818,585,cs),
(819,658,o),
(734,718,o)
);
},
{
closed = 1;
nodes = (
(182,29,cs),
(166,10,o),
(109,-5,o),
(98,7,cs),
(86,18,o),
(132,41,o),
(169,41,cs),
(188,41,o),
(191,40,o)
);
}
);
width = 678;
},
{
layerId = m01;
width = 600;
}
);
unicode = 163;
},
{
glyphname = plus;
lastChange = "2026-03-12 18:47:04 +0000";
layers = (
{
layerId = "00CACD6B-0B58-4977-961D-D953D4B3986F";
shapes = (
{
closed = 1;
nodes = (
(319,393,c),
(279,314,l),
(198,314,l),
(117,314,o),
(116,314,o),
(104,290,cs),
(87,258,o),
(91,256,o),
(175,256,cs),
(215,256,o),
(248,254,o),
(248,251,cs),
(248,248,o),
(231,211,o),
(211,167,cs),
(166,74,o),
(168,83,o),
(201,83,cs),
(237,83,o),
(239,85,o),
(281,175,c),
(318,256,l),
(407,256,l),
(495,256,o),
(497,256,o),
(504,278,cs),
(517,309,o),
(511,313,o),
(432,313,cs),
(344,315,o),
(348,308,o),
(388,393,cs),
(447,518,o),
(384,518,o)
);
}
);
width = 529;
},
{
layerId = m01;
width = 600;
}
);
unicode = 43;
},
{
glyphname = asciitilde;
lastChange = "2026-03-12 18:47:04 +0000";
layers = (
{
layerId = "00CACD6B-0B58-4977-961D-D953D4B3986F";
shapes = (
{
closed = 1;
nodes = (
(172,545,cs),
(93,495,o),
(63,421,o),
(139,462,cs),
(180,484,o),
(192,483,o),
(229,459,cs),
(283,422,o),
(335,434,o),
(396,496,cs),
(441,542,o),
(430,559,o),
(376,529,cs),
(334,507,o),
(322,508,o),
(282,541,cs),
(240,577,o),
(222,578,o)
);
}
);
width = 364;
},
{
layerId = m01;
width = 600;
}
);
unicode = 126;
},
{
glyphname = percent;
lastChange = "2026-03-12 18:47:04 +0000";
layers = (
{
layerId = "00CACD6B-0B58-4977-961D-D953D4B3986F";
shapes = (
{
closed = 1;
nodes = (
(194,552,cs),
(108,505,o),
(65,388,o),
(115,338,cs),
(191,263,o),
(368,411,o),
(330,518,cs),
(317,558,o),
(240,577,o)
);
},
{
closed = 1;
nodes = (
(269,547,cs),
(287,536,o),
(288,502,o),
(273,454,cs),
(235,331,o),
(140,284,o),
(151,394,cs),
(161,488,o),
(228,575,o)
);
},
{
closed = 1;
nodes = (
(274,292,cs),
(128,147,o),
(8,24,o),
(8,19,cs),
(8,-6,o),
(48,10,o),
(81,49,cs),
(112,86,o),
(223,197,o),
(345,313,cs),
(524,484,o),
(569,532,o),
(560,543,cs),
(546,561,o),
(553,566,o)
);
},
{
closed = 1;
nodes = (
(361,244,cs),
(273,213,o),
(212,62,o),
(269,18,cs),
(311,-12,o),
(410,27,o),
(452,89,cs),
(522,194,o),
(469,283,o)
);
},
{
closed = 1;
nodes = (
(430,222,cs),
(450,185,o),
(406,68,o),
(360,38,cs),
(299,-2,o),
(281,59,o),
(324,160,cs),
(353,227,o),
(410,261,o)
);
}
);
width = 595;
},
{
layerId = m01;
width = 600;
}
);
unicode = 37;
},
{
glyphname = dieresis;
lastChange = "2026-03-12 18:47:04 +0000";
layers = (
{
anchors = (
{
name = _top;
pos = (256,320);
}
);
layerId = "00CACD6B-0B58-4977-961D-D953D4B3986F";
shapes = (
{
closed = 1;
nodes = (
(321,544,cs),
(288,537,o),
(255,479,o),
(274,459,cs),
(307,421,o),
(396,453,o),
(396,503,cs),
(396,538,o),
(367,553,o)
);
},
{
closed = 1;
nodes = (
(153,517,cs),
(116,480,o),
(122,451,o),
(170,440,cs),
(216,429,o),
(273,489,o),
(253,526,cs),
(239,552,o),
(184,547,o)
);
}
);
width = 388;
},
{
layerId = m01;
width = 600;
}
);
unicode = 168;
},
{
glyphname = dotaccent;
lastChange = "2026-03-12 18:47:04 +0000";
layers = (
{
anchors = (
{
name = _top;
pos = (158,320);
}
);
layerId = "00CACD6B-0B58-4977-961D-D953D4B3986F";
shapes = (
{
closed = 1;
nodes = (
(138,496,cs),
(94,461,o),
(102,413,o),
(152,413,cs),
(189,413,o),
(223,441,o),
(223,471,cs),
(223,513,o),
(176,526,o)
);
}
);
width = 229;
},
{
layerId = m01;
width = 600;
}
);
unicode = 729;
},
{
glyphname = grave;
lastChange = "2026-03-12 18:47:04 +0000";
layers = (
{
anchors = (
{
name = _top;
pos = (165,320);
}
);
layerId = "00CACD6B-0B58-4977-961D-D953D4B3986F";
shapes = (
{
closed = 1;
nodes = (
(167,594,cs),
(118,583,o),
(118,548,o),
(118,520,cs),
(371,405,o),
(405,417,o),
(426,426,cs),
(415,438,o),
(375,451,o),
(328,467,cs),
(224,532,o),
(194,566,o)
);
}
);
width = 331;
},
{
layerId = m01;
width = 600;
}
);
unicode = 96;
},
{
glyphname = acute;
lastChange = "2026-03-12 18:47:04 +0000";
layers = (
{
anchors = (
{
name = _top;
pos = (272,320);
}
);
layerId = "00CACD6B-0B58-4977-961D-D953D4B3986F";
shapes = (
{
closed = 1;
nodes = (
(350,566,cs),
(320,532,o),
(216,467,o),
(169,451,cs),
(129,438,o),
(118,426,o),
(139,417,cs),
(173,405,o),
(426,520,o),
(426,548,cs),
(426,583,o),
(377,594,o)
);
}
);
width = 331;
},
{
layerId = m01;
width = 600;
}
);
unicode = 180;
},
{
glyphname = circumflex;
lastChange = "2026-03-12 18:47:04 +0000";
layers = (
{
anchors = (
{
name = _top;
pos = (226,320);
}
);
layerId = "00CACD6B-0B58-4977-961D-D953D4B3986F";
shapes = (
{
closed = 1;
nodes = (
(272,596,cs),
(249,573,o),
(202,533,o),
(167,509,cs),
(102,463,o),
(93,452,o),
(115,443,cs),
(137,435,o),
(184,457,o),
(226,495,cs),
(275,538,o),
(274,538,o),
(281,504,cs),
(294,441,o),
(359,405,o),
(348,467,cs),
(345,481,o),
(339,524,o),
(334,562,cs),
(322,647,o),
(321,647,o)
);
}
);
width = 347;
},
{
layerId = m01;
width = 600;
}
);
unicode = 710;
},
{
glyphname = caron;
lastChange = "2026-03-12 18:47:04 +0000";
layers = (
{
anchors = (
{
name = _top;
pos = (239,320);
}
);
layerId = "00CACD6B-0B58-4977-961D-D953D4B3986F";
shapes = (
{
closed = 1;
nodes = (
(122,570,cs),
(113,556,o),
(147,405,o),
(158,405,cs),
(174,405,o),
(366,559,o),
(366,572,cs),
(366,589,o),
(330,574,o),
(272,533,cs),
(196,479,o),
(196,479,o),
(184,523,c),
(172,569,l),
(168,580,o),
(130,582,o)
);
}
);
width = 306;
},
{
layerId = m01;
width = 600;
}
);
unicode = 711;
},
{
glyphname = ring;
lastChange = "2026-03-12 18:47:04 +0000";
layers = (
{
anchors = (
{
name = _top;
pos = (300,320);
}
);
layerId = "00CACD6B-0B58-4977-961D-D953D4B3986F";
shapes = (
{
closed = 1;
nodes = (
(288,654,cs),
(264,642,o),
(245,625,o),
(228,599,cs),
(150,476,o),
(273,413,o),
(377,523,cs),
(451,600,o),
(385,699,o)
);
},
{
closed = 1;
nodes = (
(362,607,cs),
(381,564,o),
(320,493,o),
(267,498,cs),
(243,500,o),
(240,503,o),
(238,532,cs),
(232,599,o),
(337,662,o)
);
}
);
width = 438;
},
{
layerId = m01;
width = 600;
}
);
unicode = 730;
},
{
glyphname = tilde;
lastChange = "2026-03-12 18:47:04 +0000";
layers = (
{
anchors = (
{
name = _top;
pos = (252,320);
}
);
layerId = "00CACD6B-0B58-4977-961D-D953D4B3986F";
shapes = (
{
closed = 1;
nodes = (
(172,545,cs),
(93,495,o),
(63,421,o),
(139,462,cs),
(180,484,o),
(192,483,o),
(229,459,cs),
(283,422,o),
(335,434,o),
(396,496,cs),
(441,542,o),
(430,559,o),
(376,529,cs),
(334,507,o),
(322,508,o),
(282,541,cs),
(240,577,o),
(222,578,o)
);
}
);
width = 364;
},
{
layerId = m01;
width = 600;
}
);
unicode = 732;
},
{
glyphname = cedilla;
lastChange = "2026-03-12 18:47:04 +0000";
layers = (
{
anchors = (
{
name = _bottom;
pos = (157,0);
}
);
layerId = "00CACD6B-0B58-4977-961D-D953D4B3986F";
shapes = (
{
closed = 1;
nodes = (
(59,-45,cs),
(21,-102,o),
(21,-107,o),
(67,-101,cs),
(108,-97,o),
(121,-130,o),
(91,-161,cs),
(55,-197,o),
(-12,-172,o),
(-12,-123,cs),
(-12,-85,o),
(-32,-80,o),
(-46,-112,cs),
(-78,-182,o),
(23,-231,o),
(115,-190,cs),
(198,-153,o),
(211,-91,o),
(143,-62,cs),
(111,-49,o),
(103,-29,o),
(122,-10,cs),
(130,-3,o),
(127,0,o),
(111,0,cs),
(93,0,o),
(83,-9,o)
);
}
);
width = 314;
},
{
layerId = m01;
width = 600;
}
);
unicode = 184;
},
{
glyphname = asciicircumflex;
lastChange = "2026-03-12 18:47:04 +0000";
layers = (
{
layerId = "00CACD6B-0B58-4977-961D-D953D4B3986F";
shapes = (
{
closed = 1;
nodes = (
(272,596,cs),
(249,573,o),
(202,533,o),
(167,509,cs),
(102,463,o),
(93,452,o),
(115,443,cs),
(137,435,o),
(184,457,o),
(226,495,cs),
(275,538,o),
(274,538,o),
(281,504,cs),
(294,441,o),
(359,405,o),
(348,467,cs),
(345,481,o),
(339,524,o),
(334,562,cs),
(322,647,o),
(321,647,o)
);
}
